<svg width="140" height="16" viewBox="0 0 140 16" fill="none" xmlns="http://www.w3.org/2000/svg">
<g clip-path="url(#clip0_95_417)">
<path d="M60.5829 0.13242H50.704C50.2153 0.13242 49.8179 0.5649 49.8179 1.09802V2.84698C49.8179 3.3801 50.2153 3.81258 50.704 3.81258H53.7991V14.9646C53.791 15.1694 53.8643 15.3692 54.003 15.5203C54.1417 15.6714 54.3346 15.7615 54.5396 15.7711H56.7527C56.9577 15.7615 57.1506 15.6714 57.2893 15.5203C57.428 15.3692 57.5013 15.1694 57.4932 14.9646V3.81258H60.5883C61.077 3.81258 61.4744 3.3801 61.4744 2.84698V1.0953C61.4744 0.562181 61.077 0.1297 60.5883 0.1297L60.5829 0.13242Z" fill="#199C72"/>
<path d="M99.4414 12.0378V0.898065C99.4456 0.801711 99.4307 0.705473 99.3977 0.614847C99.3647 0.524221 99.3141 0.440981 99.2489 0.369881C99.1837 0.298781 99.1051 0.241213 99.0176 0.200463C98.9301 0.159713 98.8355 0.13658 98.739 0.132385H96.4973C96.4009 0.13658 96.3062 0.159713 96.2187 0.200463C96.1312 0.241213 96.0526 0.298781 95.9874 0.369881C95.9222 0.440981 95.8716 0.524221 95.8386 0.614847C95.8056 0.705473 95.7908 0.801711 95.795 0.898065V14.8802C95.7902 14.992 95.8076 15.1036 95.8461 15.2086C95.8846 15.3136 95.9435 15.41 96.0193 15.4923C96.0952 15.5745 96.1866 15.641 96.2882 15.6879C96.3899 15.7348 96.4998 15.7612 96.6116 15.7656H104.582C104.679 15.7616 104.774 15.7386 104.861 15.6979C104.949 15.6572 105.028 15.5997 105.093 15.5286C105.158 15.4574 105.209 15.3741 105.242 15.2834C105.275 15.1927 105.29 15.0964 105.286 14.9999V12.8089C105.294 12.6142 105.225 12.4242 105.093 12.2807C104.961 12.1371 104.777 12.0517 104.582 12.0433H99.4441L99.4414 12.0378Z" fill="#199C72"/>
<path d="M110.653 0.132385H108.921C108.391 0.132385 107.96 0.600225 107.96 1.17822V14.7197C107.96 15.2977 108.391 15.7656 108.921 15.7656H110.653C111.184 15.7656 111.614 15.2977 111.614 14.7197V1.17822C111.606 0.600225 111.178 0.132385 110.653 0.132385Z" fill="#199C72"/>
<path d="M138.526 0.13242H128.647C128.158 0.13242 127.762 0.5649 127.762 1.09802V2.84698C127.762 3.3801 128.158 3.81258 128.647 3.81258H131.75V14.9646C131.742 15.1694 131.815 15.3692 131.954 15.5203C132.093 15.6714 132.285 15.7615 132.49 15.7711H134.697C134.902 15.7615 135.095 15.6714 135.233 15.5203C135.372 15.3692 135.445 15.1694 135.437 14.9646V3.81258H138.532C139.022 3.81258 139.419 3.3801 139.419 2.84698V1.0953C139.419 0.562181 139.022 0.1297 138.532 0.1297L138.526 0.13242Z" fill="#199C72"/>
<path d="M46.2818 0.132376H44.3762C44.1389 0.142982 43.9153 0.246817 43.7542 0.421288C43.5931 0.595758 43.5075 0.826742 43.516 1.06398V9.15733C43.516 10.1583 43.3105 10.9022 42.9035 11.366C42.8228 11.4626 42.7315 11.5497 42.6313 11.6257C42.6041 11.6489 42.5755 11.6703 42.5455 11.6897C42.1111 11.9867 41.5964 12.1442 41.0701 12.1412H41.0238C40.4974 12.1448 39.9824 11.9872 39.5483 11.6897C39.5181 11.67 39.489 11.6486 39.4612 11.6257C39.3612 11.5494 39.2699 11.4623 39.189 11.366C38.7807 10.9022 38.5765 10.1583 38.5765 9.15733V1.06398C38.5765 0.548536 38.1913 0.128296 37.7176 0.128296H35.8121C35.3384 0.128296 34.9546 0.548536 34.9546 1.06398V9.13966C34.9546 11.1892 35.5181 12.8293 36.6288 14.0139C37.478 14.9349 38.628 15.5232 39.8723 15.6731C40.6513 15.7919 41.4439 15.7919 42.2229 15.6731C43.4633 15.5214 44.6091 14.9338 45.4556 14.0153C46.5676 12.8307 47.1311 11.1905 47.1311 9.14101V1.06398C47.1311 0.548536 46.7486 0.128296 46.2736 0.128296L46.2818 0.132376Z" fill="#199C72"/>
<path d="M75.4545 0.132376H73.5489C73.3116 0.142982 73.088 0.246817 72.9269 0.421288C72.7658 0.595758 72.6802 0.826742 72.6887 1.06398V9.15733C72.6887 10.1583 72.4832 10.9022 72.0762 11.366C71.9956 11.4626 71.9043 11.5497 71.804 11.6257C71.7769 11.6489 71.7482 11.6703 71.7182 11.6897C71.2839 11.9867 70.7691 12.1442 70.2428 12.1412H70.1965C69.6701 12.1448 69.1552 11.9872 68.7211 11.6897C68.6911 11.6703 68.6625 11.6489 68.6353 11.6257C68.535 11.5497 68.4437 11.4626 68.3631 11.366C67.9548 10.9022 67.7506 10.1583 67.7506 9.15733V1.06398C67.7506 0.548536 67.3654 0.128296 66.8917 0.128296H64.9862C64.5125 0.128296 64.1273 0.548536 64.1273 1.06398V9.13966C64.1273 11.1892 64.6922 12.8293 65.8028 14.0139C66.6523 14.9346 67.8022 15.5228 69.0464 15.6731C69.8254 15.7919 70.618 15.7919 71.397 15.6731C72.6409 15.5232 73.7905 14.9349 74.6392 14.0139C75.7512 12.8293 76.3147 11.1892 76.3147 9.13966V1.06398C76.3147 0.548536 75.9322 0.128296 75.4572 0.128296L75.4545 0.132376Z" fill="#199C72"/>
<path d="M125.91 9.55042C125.644 8.66811 125.139 7.87697 124.449 7.26562C124.226 7.08592 123.988 6.92704 123.736 6.79098C122.919 6.35578 121.882 6.09058 120.558 5.97498L119.666 5.87434C119.122 5.80362 118.81 5.6581 118.63 5.5085C118.546 5.43894 118.479 5.35111 118.433 5.25167C118.388 5.15223 118.366 5.04379 118.369 4.93458C118.365 4.64483 118.472 4.36453 118.668 4.15122C118.969 3.85338 119.586 3.47122 120.747 3.49978C121.908 3.52834 122.689 3.99754 123.153 4.45178C123.214 4.51145 123.287 4.55798 123.367 4.58848C123.447 4.61898 123.532 4.63281 123.617 4.62911C123.702 4.62541 123.786 4.60427 123.863 4.56699C123.94 4.5297 124.008 4.47707 124.064 4.41234L125.409 2.95034C125.59 2.74855 125.686 2.48398 125.676 2.21279C125.665 1.9416 125.549 1.68514 125.353 1.49786C124.846 1.04548 124.276 0.670165 123.66 0.384021C122.784 -0.0455691 121.834 -0.30538 120.861 -0.381659C119.98 -0.452424 119.094 -0.335612 118.261 -0.0389386C118.174 -0.0090186 118.093 0.024981 118.007 0.056261C117.172 0.397706 116.439 0.947975 115.879 1.65417C115.319 2.36036 114.949 3.19872 114.807 4.08866C114.664 4.87123 114.702 5.67618 114.92 6.44146C115.192 7.2919 115.682 8.05623 116.342 8.65826C116.573 8.84563 116.82 9.01177 117.08 9.15466C117.897 9.5885 118.935 9.85506 120.258 9.97066L121.151 10.0713C121.696 10.142 122.006 10.2875 122.187 10.4371C122.271 10.5071 122.338 10.595 122.383 10.6943C122.428 10.7937 122.451 10.9019 122.448 11.0111C122.452 11.3015 122.345 11.5823 122.147 11.7958C121.848 12.0923 121.231 12.4758 120.07 12.4459C119.885 12.4409 119.7 12.4232 119.518 12.3928C119.506 12.3917 119.494 12.3895 119.482 12.386L119.312 12.3561C117.859 12.0759 117.134 11.177 117.134 11.177C117.08 11.1212 117.031 11.0655 116.986 11.0097C116.935 10.9445 116.87 10.8905 116.797 10.8512C116.724 10.8118 116.643 10.7879 116.561 10.7809C116.478 10.7738 116.394 10.7839 116.316 10.8104C116.237 10.8369 116.164 10.8793 116.103 10.9349L114.657 12.1875C114.446 12.3815 114.318 12.6499 114.301 12.9361C114.284 13.2223 114.379 13.5039 114.566 13.7215C114.772 13.9776 115 14.2155 115.247 14.4328C115.247 14.4328 116.395 15.6215 118.056 16.0539C118.633 16.2013 119.223 16.2924 119.817 16.3259C120.089 16.3491 120.247 16.3491 120.247 16.3491C120.535 16.3596 120.823 16.3487 121.109 16.3164H121.156C121.636 16.2563 122.109 16.1483 122.567 15.9941C122.654 15.9628 122.735 15.9288 122.82 15.8975C123.655 15.5568 124.389 15.0068 124.949 14.3005C125.51 13.5942 125.879 12.7555 126.021 11.8651C126.161 11.0993 126.127 10.3117 125.919 9.5613L125.91 9.55042Z" fill="#199C72"/>
<path d="M93.1543 14.8068C93.1034 14.3025 93.0161 13.8025 92.893 13.3108C92.874 13.2278 92.8535 13.1462 92.8331 13.0646C92.7814 12.8661 92.697 12.5832 92.5854 12.2486C92.3262 11.5204 91.9951 10.8197 91.5972 10.1569C91.8835 9.40397 92.0715 8.61731 92.1566 7.81637C92.2443 6.70227 92.0863 5.58253 91.6939 4.53605C91.2998 3.48909 90.6922 2.53548 89.9094 1.73581C87.91 -0.324588 85.2395 -0.402109 84.5194 -0.406189C82.9697 -0.403933 81.4528 0.0395151 80.1462 0.872211C79.5174 1.28021 79.8917 1.87045 79.9611 1.96021L80.9656 3.48069L81.0241 3.57045C81.1602 3.79077 81.5019 4.07501 82.098 3.76493C82.2707 3.67002 82.4488 3.58554 82.6316 3.51197C82.7799 3.45213 82.9269 3.39773 83.0739 3.35285C83.8265 3.13962 84.6177 3.10009 85.3878 3.23725C86.0031 3.35965 87.5085 3.72821 88.3932 5.29493C88.4381 5.37925 88.4789 5.45949 88.5157 5.53701C88.6248 5.79535 88.7034 6.06556 88.7498 6.34213C88.7867 6.58233 88.7995 6.82563 88.7879 7.06837C88.3475 6.7431 87.8793 6.4573 87.3887 6.21429C87.2607 6.15581 87.1165 6.08917 86.9558 6.02389C86.3464 5.76946 85.7055 5.59837 85.0503 5.51525C84.2924 5.42346 83.524 5.4728 82.784 5.66077C81.0146 6.11365 79.9502 7.02077 79.3078 7.90341C78.5628 9.12483 78.2695 10.5684 78.4788 11.9834C78.7511 13.9445 80.1544 15.0339 80.7056 15.4215C81.6969 16.0693 82.8587 16.4078 84.0431 16.3939C85.1667 16.3882 86.2739 16.1233 87.2784 15.62C88.1843 15.163 88.9753 14.5075 89.5923 13.7024C89.5923 13.7256 89.6059 13.7514 89.6114 13.7745C89.6105 13.7776 89.6105 13.7809 89.6114 13.784C89.7091 14.1739 89.7787 14.5702 89.8196 14.97C89.8349 15.1786 89.9266 15.3744 90.0773 15.5197C90.228 15.6649 90.427 15.7496 90.6363 15.7574H92.3758C92.8454 15.7574 93.2088 15.3086 93.1489 14.8054L93.1543 14.8068ZM86.1337 12.099C86.0329 12.1653 85.9284 12.2257 85.8207 12.2799C85.5988 12.389 85.3685 12.4799 85.1319 12.5519L85.0748 12.5696C84.4277 12.7907 83.7283 12.8078 83.0712 12.6185C82.0885 12.3017 81.8326 11.5305 81.8326 11.5305C81.7977 11.4331 81.7753 11.3317 81.7659 11.2286C81.7337 11.0193 81.7452 10.8057 81.7998 10.6011C81.8544 10.3965 81.9508 10.2054 82.0831 10.04C82.5322 9.43477 83.24 9.26341 83.7572 9.22397C84.1835 9.19378 84.6119 9.22678 85.0285 9.32189C85.0366 9.32076 85.0449 9.32076 85.053 9.32189L85.0829 9.33005C85.1061 9.33685 85.1292 9.34093 85.1537 9.34637C85.1537 9.34637 86.5148 9.68773 87.4785 10.6316C87.1513 11.2203 86.6896 11.7236 86.131 12.1004L86.1337 12.099Z" fill="#199C72"/>
<path d="M31.251 0.148745L31.0182 0.200426C30.5493 0.298958 30.0863 0.423362 29.6312 0.573066L29.5278 0.607066C28.6385 0.902015 27.7826 1.28947 26.9743 1.76307C26.8695 1.82291 26.7702 1.88547 26.6708 1.94531C25.9467 1.29251 24.0044 -0.214374 21.308 -0.385734C19.986 -0.482756 18.6602 -0.254897 17.4466 0.277946C16.958 0.476852 16.4876 0.717561 16.0405 0.997386C16.0312 0.988005 16.0212 0.979365 16.0106 0.971546C14.9017 0.0656089 13.5093 -0.422037 12.077 -0.406134C11.0977 -0.416925 10.1282 -0.209726 9.23906 0.200426C8.53968 0.580167 7.88925 1.04372 7.3022 1.58083C6.63671 2.22612 6.06123 2.95803 5.59128 3.75683C5.41706 2.79123 5.2129 1.82699 4.97334 0.880426L4.7964 0.174586C4.72426 -0.0552544 4.45476 -0.603334 3.54962 -0.324534L2.17217 0.0875456C2.17217 0.0875456 1.39362 0.237146 1.63998 1.22995L1.79106 1.82971C2.09414 3.03376 2.34186 4.25051 2.53423 5.47995C2.74384 6.82499 2.8922 8.02451 2.9834 9.15195C2.9834 9.15195 3.17667 10.8207 3.1059 14.7279V14.7973C3.1059 15.0135 3.17259 15.6786 3.92256 15.6786H5.71106C6.43109 15.6786 6.46376 14.9986 6.46648 14.883V14.8626L6.48281 14.2383C6.48281 14.2383 6.48281 14.2193 6.48281 14.1839C6.48281 14.0479 6.49234 13.8929 6.49778 13.7351C6.52909 12.9042 6.5917 11.8311 6.7142 11.0029C6.92926 9.64291 7.35665 7.94699 8.19917 6.35035C9.18598 4.47899 10.2653 3.68883 11.1051 3.35835C11.7936 3.11911 12.5447 3.13212 13.2244 3.39507C12.8038 3.93907 12.5316 4.34707 12.4173 4.52115C11.7947 5.55544 11.3171 6.67014 10.9976 7.8341C10.8115 8.45403 10.6665 9.08553 10.5634 9.7245C10.4123 10.5255 10.0761 13.9745 12.3737 15.5861C14.5733 17.1311 16.947 16.0322 16.947 16.0322C17.5432 15.7477 18.0792 15.3516 18.5259 14.8653C18.5259 14.8653 19.6271 13.8847 19.9646 11.6938C20.0617 10.9724 20.0749 10.2422 20.0041 9.51779C19.7781 6.74203 18.8771 4.91826 18.8771 4.91826C18.7655 4.6653 18.6511 4.42731 18.5368 4.21107C18.5123 4.16483 18.4157 4.00027 18.2646 3.75955C18.6908 3.55832 19.1389 3.40681 19.5998 3.30803C20.0551 3.20223 20.5223 3.15651 20.9895 3.17203C21.1406 3.17203 21.2876 3.19107 21.4292 3.20875C21.4292 3.20875 22.6174 3.26859 24.0275 4.28179C23.5322 4.86517 23.1065 5.50413 22.759 6.18579C21.5013 8.67323 20.7078 12.3819 22.6052 14.6545C23.0294 15.1549 23.5484 15.5667 24.1323 15.8661C24.7163 16.1656 25.3537 16.3468 26.008 16.3994L26.1781 16.4103C26.3142 16.4103 26.4503 16.4103 26.6014 16.4007C27.6688 16.3146 28.677 15.8753 29.4665 15.1523C30.8004 13.9133 31.0795 12.1507 31.0754 10.7758C31.0754 10.7758 31.1312 7.85858 29.1698 4.60818L29.3059 4.53474C29.6764 4.35999 30.0568 4.20696 30.4452 4.07643C30.7473 3.98123 31.0577 3.89555 31.3272 3.82891C31.5458 3.76574 31.7373 3.63185 31.8715 3.44823C32.0058 3.26461 32.0752 3.04166 32.069 2.81435V0.866826C32.0746 0.762228 32.0565 0.657709 32.0159 0.561143C31.9752 0.464577 31.9132 0.378482 31.8344 0.309346C31.7557 0.240209 31.6622 0.189834 31.5612 0.162015C31.4601 0.134196 31.354 0.129659 31.251 0.148745ZM16.4434 12.0175C16.3002 12.2774 16.0852 12.4908 15.8241 12.6322L15.7738 12.6567C15.5872 12.7354 15.3866 12.7752 15.1841 12.7736C14.9816 12.772 14.7816 12.7289 14.5964 12.6471C14.4462 12.5795 14.3083 12.4876 14.1881 12.3751C13.9744 12.1612 13.8318 11.8868 13.7797 11.5891C13.6436 10.7839 13.9444 9.66603 13.9444 9.66603C14.0152 9.36003 14.0969 9.06491 14.1704 8.80787C14.4556 7.73212 14.9364 6.71794 15.5886 5.81587C15.5886 5.82675 15.7996 6.25243 16.0296 6.90387C16.295 7.70461 16.4926 8.52622 16.6204 9.36003C16.649 9.61027 16.6748 9.85914 16.6884 10.0985C16.6884 10.0985 16.8041 11.347 16.4448 12.0215L16.4434 12.0175ZM27.2724 12.5315C27.0239 12.7452 26.7164 12.8784 26.3904 12.9137C26.2898 12.9197 26.1887 12.9133 26.0896 12.8947C25.7014 12.8303 25.3472 12.6343 25.0865 12.3398C24.7095 11.891 24.7408 11.0478 24.8347 10.4195C24.985 9.5136 25.269 8.63501 25.6772 7.81235C25.906 7.36436 26.1855 6.94409 26.5102 6.55979C27.5732 8.35635 27.6985 9.83738 27.6985 9.83738C27.7376 10.1141 27.7594 10.393 27.7638 10.6724C27.7788 11.3701 27.6944 12.1399 27.2738 12.5315H27.2724Z" fill="#199C72"/>
</g>
<defs>
<clipPath id="clip0_95_417">
<rect width="140" height="16" fill="white"/>
</clipPath>
</defs>
</svg>
