<svg width="300" height="300" viewBox="0 0 300 300" fill="none" xmlns="http://www.w3.org/2000/svg">
<path d="M293.43 123.53C293.399 123.444 293.363 123.361 293.32 123.28C295.281 103.23 295.816 83.0658 294.92 62.94C294.78 60.35 294.6 57.73 294.36 55.11C294.12 52.49 293.84 49.63 293.36 46.52C292.819 43.1026 291.989 39.7373 290.88 36.46C290.234 34.6124 289.475 32.8057 288.61 31.05C287.699 29.2004 286.638 27.4279 285.44 25.75C284.321 24.1381 283.081 22.6137 281.73 21.19C280.394 19.8252 278.964 18.5554 277.45 17.39C276.006 16.2649 274.489 15.236 272.91 14.31C272.14 13.85 271.38 13.48 270.61 13.07L269.45 12.48L268.29 12C262.746 9.62593 256.906 8.01135 250.93 7.19999C248.25 6.81999 245.6 6.49999 243.1 6.29999L235.93 5.72999C231.32 5.33999 226.71 4.90999 222.12 4.34999C215.203 3.56478 208.236 3.31404 201.28 3.59999C196.83 3.72999 193.19 4.25999 189.28 2.68999C187.18 1.86999 184.45 1.88999 181.93 2.01999C164.2 2.89999 146.41 2.01999 128.79 1.86999C114.43 1.73999 100.03 1.92999 85.79 2.32999L77.79 2.59999L74 2.70999L70.18 2.77999C67.59 2.82999 64.85 2.84999 61.89 2.95999C58.93 3.06999 55.8 3.21999 52.45 3.62999C45.3857 4.41475 38.4865 6.2939 32 9.19999C31.18 9.54999 30.39 9.93999 29.61 10.34L27.93 11.18C27.3438 11.4671 26.7819 11.8015 26.25 12.18C25.1466 12.8511 24.0967 13.6067 23.11 14.44C22.61 14.85 22.11 15.28 21.67 15.67L20.72 16.53C18.32 18.75 16.23 20.83 14.04 23.18L13.31 23.97L12.41 24.97C11.67 25.81 10.95 26.66 10.25 27.57C8.7959 29.3188 7.55704 31.2358 6.56003 33.28C6.31123 33.7845 6.10711 34.3098 5.95003 34.85L5.83003 35.26V35.36V35.44C5.95003 35.44 5.66003 35.44 5.69003 35.44V35.64L5.50003 36.44C5.16669 37.48 4.89003 38.56 4.67003 39.68C4.45003 40.8 4.27003 41.9067 4.13003 43L3.85003 45.1C3.21003 50 2.65003 54.85 2.21003 59.77C1.2854 69.6619 0.881511 79.5956 1.00003 89.53C1.08003 93.53 1.00003 97.68 1.26003 101.76C1.36003 103.76 1.58003 105.83 1.87003 107.76C2.03003 108.747 2.22003 109.717 2.44003 110.67C2.63696 111.589 2.884 112.497 3.18003 113.39C4.18003 116.39 4.59003 118.24 3.78003 121.3C3.20423 123.868 3.01215 126.506 3.21003 129.13C3.56003 134.54 3.76003 140.04 3.84003 145.71C3.92003 151.38 3.84003 157.18 3.76003 163.05C3.68003 168.92 4.01003 174.77 4.32003 180.63L4.53003 185.14C4.58003 186.67 4.64003 188.2 4.69003 189.73C4.77003 192.73 4.77003 195.73 4.57003 198.73C4.35961 203.218 4.50338 207.715 5.00003 212.18C5.50096 216.464 5.72476 220.777 5.67003 225.09C5.67003 226.3 5.55003 227.33 5.48003 228.57L5.23003 232.49C5.07003 235.15 4.93003 237.86 4.85003 240.67C4.77003 243.48 4.73003 246.34 4.85003 249.35C4.92423 252.537 5.19474 255.716 5.66003 258.87C5.76003 259.69 5.95003 260.62 6.13003 261.51C6.22003 261.96 6.30003 262.39 6.40003 262.86L6.78003 264.31C6.93003 264.87 7.07003 265.43 7.25003 265.98L7.84003 267.65L8.47003 269.29L9.24003 270.88C9.48691 271.412 9.76403 271.93 10.07 272.43L11.07 273.89C11.7001 274.88 12.402 275.823 13.17 276.71L13.76 277.38L14.35 278.03L15.25 278.96C15.83 279.56 16.42 280.15 17.01 280.71C18.19 281.83 19.39 282.9 20.66 283.96C22.0216 285.11 23.44 286.192 24.91 287.2C25.79 287.82 26.85 288.46 27.85 289.02C28.8738 289.567 29.9252 290.061 31 290.5C32.982 291.294 35.0299 291.913 37.12 292.35C38.78 292.7 40.28 292.93 41.66 293.12L43.66 293.36L45.66 293.57C48.35 293.81 51.04 293.96 53.66 294.01C58.94 294.1 63.96 293.84 68.51 293.63C70.8 293.53 72.99 293.44 75.13 293.4C77.27 293.36 79.26 293.4 81.7 293.4L95.7 293.54C114.367 293.687 132.993 293.73 151.58 293.67C182.87 293.52 214.02 293.3 245.26 292.67L256.75 292.46C260.041 292.375 263.313 291.936 266.51 291.15C268.071 290.749 269.599 290.228 271.08 289.59C272.54 288.946 273.954 288.201 275.31 287.36C281.31 283.49 284.51 276.81 286.55 269.75C286.8 268.87 287.08 267.98 287.3 267.09L287.8 265.09C288.04 263.99 288.31 262.87 288.52 261.81C288.98 259.64 289.35 257.55 289.71 255.46C291.09 247.16 291.97 239.17 292.65 231.19C293.92 215.9 294.65 200.82 295.23 185.75C295.81 170.68 296.05 155.66 296.06 140.64C296.05 134.44 295.54 128.44 293.43 123.53ZM280.52 92C280.58 91 280.92 90.82 281.18 91.58C281.464 92.4634 281.668 93.3703 281.79 94.29C281.89 95.09 281.63 95.51 281.24 95.45C280.566 94.4349 280.309 93.1998 280.52 92ZM283.74 66.2L284.06 65.93V66.44L283.74 66.2ZM288.74 63.06L288.56 62.39H288.82L288.74 63.06ZM131.63 4.68999L133.26 4.06999C133.97 4.85999 132.1 4.47999 131.9 4.85999C130.62 5.49999 128.05 5.44999 127.97 6.73999C135.24 7.55999 142.47 8.22999 149.97 7.27999C152.064 6.95054 154.196 6.95054 156.29 7.27999C164.96 9.27999 173.76 7.35999 182.15 8.01999C196.89 9.16999 211.88 9.01999 226.39 11.53C231 11.53 235.54 11.48 240.22 11.7C245.297 11.8871 250.321 12.7997 255.14 14.41C257.47 15.25 259.84 15.81 262.44 16.57C267.192 17.8752 271.62 20.1571 275.44 23.27C276.462 24.1122 277.424 25.0244 278.32 26C278.77 26.5 279.21 27 279.64 27.52C280.07 28.04 280.44 28.6 280.82 29.15C282.348 31.3107 283.538 33.6912 284.35 36.21C285.52 39.72 286.16 43.31 287.66 46.31C289.47 50.04 288.38 52.94 288.11 55.8C285.45 53.35 284.55 48.99 284.11 43.94C283.834 41.2059 283.212 38.5178 282.26 35.94C281.736 34.5606 281.108 33.2234 280.38 31.94C279.99 31.28 279.57 30.65 279.16 30.01L278.52 29.06L277.81 28.17C275.916 25.8012 273.686 23.7224 271.19 22C268.846 20.4038 266.339 19.0629 263.71 18C258.894 16.1306 253.849 14.9132 248.71 14.38C244.08 13.8889 239.426 13.6552 234.77 13.68C231.81 13.7086 228.888 13.0226 226.25 11.68C222.67 13.68 218.31 12.21 214.37 11.78C209.21 11.17 204.13 9.84999 199.24 11.7C198.316 11.9308 197.358 12.0018 196.41 11.91C193.28 8.31999 188.32 10.86 184.41 10.78C170.09 10.43 155.77 10.98 141.58 9.53999C138.58 9.22999 136.07 10.18 133.2 10.07C129.1 9.90999 124.77 10.61 120.61 9.32999C122.46 7.87999 126.24 8.32999 127.56 6.93999C124.31 3.84999 130.67 5.58999 131.63 4.68999ZM276.54 39.06C276.419 38.6541 276.356 38.2334 276.35 37.81C276.71 38.41 277.07 39.02 277.35 39.65C277.35 40.07 277.4 40.49 277.42 40.91C277.18 40.28 276.79 39.69 276.54 39.06ZM277.33 94.06C277.08 94.51 276.8 95.38 276.6 95.31C275.91 95.08 276.06 93.97 276.21 93.06C276.36 92.15 276.72 91.88 277.04 92.35C277.208 92.8851 277.305 93.4398 277.33 94V94.06ZM275.09 135.57C274.79 134.82 274.57 133.95 274.27 133.02C274.72 133.02 275.11 132.82 275.27 133.1C275.561 133.45 275.771 133.86 275.883 134.302C275.996 134.743 276.008 135.203 275.92 135.65C275.82 136.25 275.36 136.2 275.09 135.52V135.57ZM275.84 144.27L275.7 144.89L275.6 144.25L275.84 144.27ZM270.09 35.71C269.448 35.3028 268.746 34.9991 268.01 34.81C267.282 34.6719 266.541 34.6115 265.8 34.63C264.993 34.6711 264.184 34.6477 263.38 34.56C262.5 34.56 261.67 34.44 260.81 34.43C260.032 34.2237 259.311 33.8443 258.7 33.32C257.94 32.7 258.32 32.22 258.87 31.86C259.949 31.0498 261.235 30.561 262.58 30.45C264.474 30.3903 266.325 31.0191 267.79 32.22C269.475 33.5413 270.952 35.1089 272.17 36.87C273.453 38.7697 274.462 40.8398 275.17 43.02C274.62 42.8226 274.131 42.4856 273.75 42.042C273.37 41.5985 273.111 41.0636 273 40.49C272.819 39.4472 272.439 38.449 271.88 37.55C271.397 36.8352 270.791 36.2121 270.09 35.71ZM270.87 49.91C270.42 45.91 269.55 42.27 267.75 39.45C269.228 40.7037 270.309 42.3598 270.863 44.2168C271.417 46.0737 271.419 48.0517 270.87 49.91ZM240.54 27.32C241.24 28.11 239.89 29.11 238.19 29.32C237.353 29.5451 236.466 29.4923 235.661 29.1694C234.857 28.8466 234.179 28.2713 233.73 27.53C233.125 27.0008 232.452 26.5536 231.73 26.2C234.73 22.96 240.33 23.2 246.34 24.58C244 25.19 236.91 23.32 240.54 27.32ZM245.22 21.26C245.05 21.18 245.31 20.63 245.67 20.53C246.279 20.3897 246.911 20.3897 247.52 20.53C248.31 20.73 248.39 21.12 247.93 21.43C247.039 21.7292 246.067 21.6682 245.22 21.26ZM249.68 29.26C250.48 29.53 251.18 29.9 251.99 30.26C250.15 30.257 248.338 29.8075 246.71 28.95C247.709 28.8454 248.718 28.9406 249.68 29.23V29.26ZM222.28 18.39C218.814 18.82 215.298 18.627 211.9 17.82C216.32 18 218.6 18.13 222.28 18.36V18.39ZM196.45 15.3L196.08 15.62L195.38 15.8L195.92 15.54L196.45 15.3ZM185.6 21.68C185.6 21.1 186 20.55 187.47 20.79C188.94 21.03 190.2 21.32 190.2 22.25C189.9 23.04 188.99 23.55 187.39 23.4C185.6 23.23 185.56 22.41 185.6 21.68ZM183.33 17.07C182.686 17.0553 182.044 16.9918 181.41 16.88C182.04 16.15 183.55 16.5 184.58 16.25C185.36 16.07 185.83 16.25 185.91 16.74C185.09 16.85 184.22 17 183.33 17.07ZM176 24.42L174.06 24.64L172.35 24.23C172.974 24.1145 173.606 24.0476 174.24 24.03C174.837 24.1063 175.426 24.2368 176 24.42ZM144.3 23.94C147.374 23.5144 150.422 22.9202 153.43 22.16C154.112 21.9364 154.848 21.9446 155.525 22.1834C156.201 22.4221 156.78 22.878 157.17 23.48C157.76 24.79 155.54 24.92 153.92 24.83C150.92 24.66 147.92 24.26 144.33 23.94H144.3ZM149.87 27.69C148.27 29.09 146.02 30.04 144.16 28.69C141.85 26.96 145.66 27.96 146.62 27.75C147.709 27.6249 148.807 27.6048 149.9 27.69H149.87ZM142.79 15.92C139.54 17.03 136.01 16.4 132.54 16.52C137.66 13.83 137.67 13.83 142.82 15.92H142.79ZM130 27.34L129.29 27.46L129.35 27.15L130 27.34ZM119.51 20C120.84 20.26 121.92 20.72 122.24 21.49C122.66 22.49 121.79 23.31 120.24 23.78C117.736 24.6518 114.998 24.5699 112.55 23.55C112.4 22.31 115.97 22.55 115.89 21.19C115.81 20.17 117.41 19.6 119.51 20ZM117.27 14C118.2 14.72 117.59 15.79 116.33 15.83C110.33 16.06 110.45 17.73 111.4 20.09C111.76 20.97 109.64 20.95 108.35 20.37L109.02 20.03L108.59 19.81L107.96 20.18C104.96 19.93 101.61 20.66 97.8 19.1C104.73 18.23 107.98 15.38 112.8 13.55C113.515 13.2078 114.31 13.0689 115.098 13.1482C115.887 13.2276 116.638 13.5223 117.27 14ZM106.27 23.2C105.907 23.5518 105.474 23.8242 105 24C104.471 23.9423 103.954 23.8005 103.47 23.58C103.821 23.2932 104.226 23.0791 104.66 22.95C105.211 22.9685 105.757 23.0661 106.28 23.24L106.27 23.2ZM103 29.45C102.83 29.84 102.34 29.97 101.7 29.78C101.54 29.73 101.54 29.54 101.47 29.41L102.8 29.05C102.86 29.18 103 29.33 103 29.45ZM7.23003 66C8.00003 70.06 9.56003 73.78 7.23003 80C7.09003 74.5 7.15003 70.25 7.23003 66ZM6.52003 86.77L6.84003 87.18L6.46003 87.42L6.52003 86.77ZM7.52003 115.87C7.42003 114.78 7.35003 113.69 7.28003 112.59L7.12003 109.05C6.97003 104.29 6.99003 99.53 6.65003 94.83C6.45787 94.4556 6.35765 94.0408 6.35765 93.62C6.35765 93.1992 6.45787 92.7844 6.65003 92.41L6.90003 92L6.65003 92.62V93.7L6.71003 94.78C8.77065 99.6342 9.49236 104.952 8.80003 110.18C8.61577 112.242 8.59571 114.315 8.74003 116.38C8.88356 118.387 8.76591 120.404 8.39003 122.38C8.00003 120.21 7.68003 118.05 7.49003 115.87H7.52003ZM9.61003 139.15C8.19003 135.29 8.67003 132.52 9.00003 129.73C9.17003 132.3 9.36003 134.85 9.58003 139.15H9.61003ZM8.30003 146.56C11.12 157 10 168 8.92003 179C8.51003 168.12 8.41003 157.19 8.27003 146.56H8.30003ZM9.30003 185.96C9.65003 190.87 9.98003 194.18 10.3 197.49L10.51 198.09L10.21 197.69C8.85003 194.59 8.86003 191.12 9.24003 186L9.30003 185.96ZM10.94 245.6L10.61 246.2C10.5046 245.876 10.4375 245.54 10.41 245.2C10.41 244.11 10.67 243.85 10.93 244.5C10.9562 244.867 10.9395 245.237 10.88 245.6H10.94ZM14.21 67.88C14.08 68.35 13.67 68.56 13.38 68.88C13.3094 68.256 13.2826 67.6278 13.3 67C13.39 66.16 13.71 65.9 14.08 66.2C14.1962 66.752 14.2399 67.3167 14.21 67.88ZM15.45 31.58C14.62 32.05 14.2 32.58 14.39 32.9C14.39 32.99 14.87 32.6 15.14 32.45C14.3131 34.1388 13.5787 35.8714 12.94 37.64L12.84 37.97V38.05H12.77V38.21L12.63 38.86L12.34 40.16C12.13 41.02 11.91 41.88 11.7 42.74C11.23 44.74 10.92 45.58 10.56 46.86C10.1888 48.0878 9.90803 49.3411 9.72003 50.61C9.18227 49.482 8.89892 48.2496 8.89003 47C8.89003 46.3 8.89003 45.58 8.89003 44.84V44.29L9.00003 43.41C9.06003 42.8233 9.12003 42.2433 9.18003 41.67C9.31003 40.51 9.44003 39.38 9.56003 38.31L9.65003 37.51V37.12V37C9.65003 37 9.84003 37.07 9.76003 37V36.81C9.81466 36.3109 9.90489 35.8163 10.03 35.33C10.45 33.47 10.82 31.96 10.47 30.79C10.32 30.36 11.68 28.92 12.01 29.32C12.58 29.95 13.38 29.76 14.27 29.15C15.246 28.4382 16.1716 27.6597 17.04 26.82C18.64 25.32 20.31 23.55 21.66 23.35C23.04 22.51 24.42 21.71 25.92 20.87C26.07 20.1 26.31 18.75 26.78 18.4C27.7061 17.7148 28.671 17.0837 29.67 16.51C30.16 16.23 30.67 15.96 31.23 15.7L32.57 15C33.3 14.59 34.1 14.25 34.85 13.86C35.6 13.47 36.38 13.09 37.18 12.76C40.307 11.2899 43.6061 10.2181 47 9.56999C51.1894 8.8443 55.4218 8.39334 59.67 8.21999C63.67 8.02999 67.38 7.98999 70.91 7.92999C77.69 7.82999 85.12 7.57999 92.33 8.15999C93.2545 8.0431 94.1553 7.78333 95 7.38999L94.44 7.12999L95.12 7.30999C100.22 7.84999 106.37 6.43999 110.28 9.23999C110.941 9.3585 111.619 9.3585 112.28 9.23999L112.89 9.00999L112.47 9.32999C112.119 9.52167 111.725 9.62212 111.325 9.62212C110.925 9.62212 110.531 9.52167 110.18 9.32999C105.44 10.74 100.64 9.66999 95.85 9.74999C92.06 9.82999 88.25 9.74999 84.45 9.74999C82.54 9.74999 80.64 9.81999 78.73 9.93999C76.82 10.06 75.1 10.24 73.21 10.5C69.5 11.04 65.49 9.06999 60.96 10.13L61.5 10.43L60.85 10.18C58.16 10.58 55.42 10.91 52.57 11.34C49.72 11.77 46.82 12.29 43.92 13.03C41.0129 13.7332 38.1537 14.6217 35.36 15.69C34.67 15.96 33.95 16.2 33.28 16.51L32.18 16.99L30.82 17.61C29.9543 18.0501 29.1191 18.5479 28.32 19.1C27.92 19.37 27.54 19.68 27.15 19.97C26.76 20.26 26.36 20.59 26.05 20.83C25.5231 22.1703 24.6332 23.3373 23.48 24.2C21.58 25.58 22.25 23.76 21.74 23.4C20.74 24.57 19.81 25.77 18.86 26.99L17.38 28.99C16.68 29.81 16.05 30.68 15.45 31.58ZM93.16 23.94L91.16 23.41L93.31 23.84C93.9365 23.9047 94.5689 23.8845 95.19 23.78L97 23.2C97.36 23.99 95.76 23.55 95.38 23.88L93.38 25L92.53 28.19C90.73 26.92 91.91 25.91 93.11 24.9C93.1983 24.7571 93.2492 24.5942 93.2579 24.4264C93.2667 24.2586 93.233 24.0913 93.16 23.94ZM73.64 28.94C75 28.16 77.17 27.94 80.55 28.63C80.5236 28.9499 80.4056 29.2554 80.21 29.51C78.4926 29.4105 76.7768 29.7296 75.21 30.44C73.78 31.06 72.38 31.88 70.54 32.54C71.47 31 72.24 29.69 73.64 28.9V28.94ZM71.52 16C71.91 15.77 72.25 15.39 72.69 15.35C73.1978 15.4236 73.6886 15.5861 74.14 15.83C73.7951 16.0695 73.4085 16.2425 73 16.34C72.4948 16.2866 71.9979 16.1725 71.52 16ZM56.45 30.49C56.2126 30.5037 55.975 30.4671 55.7527 30.3827C55.5304 30.2982 55.3285 30.1678 55.16 30C54.86 29.42 55.49 28.9 56.46 28.75C56.89 28.69 57.46 29.09 57.9 29.29C58 30 57.36 30.36 56.45 30.49ZM54.52 15.76C53.8265 16.1971 53.1011 16.5815 52.35 16.91C51.42 17.26 49.99 17.47 49.57 16.99C49.15 16.51 50.31 15.99 51.41 15.7C52.4149 15.3139 53.5308 15.3354 54.52 15.76ZM38.07 29.07C38.37 28.8 38.82 28.44 39.21 28.13C39.6 27.82 40.03 27.53 40.44 27.23C41.2789 26.6149 42.1538 26.0506 43.06 25.54C44.0112 24.9974 44.9929 24.5099 46 24.08C47.092 23.6475 48.2111 23.2867 49.35 23C47 27.08 43.52 28.22 38.07 29.07ZM42.63 32.78C42.44 32.94 42.24 33.2 42.07 33.23C41.46 33.35 41.33 33.1 41.79 32.6C41.9713 32.4545 42.1976 32.3767 42.43 32.38C42.58 32.42 42.57 32.64 42.63 32.78ZM34.85 32.39L34.42 32.32L34.83 31.96L34.85 32.39ZM25.34 30.39C24.52 31.21 23.69 32.01 22.82 32.79C21.95 33.57 20.82 34.56 19.82 35.43C18.7763 36.64 17.9354 38.0111 17.33 39.49C17.33 39.61 17.4 39.76 17.33 39.86L17.44 40.23C17.52 40.48 17.6 40.72 17.69 40.95C17.8526 41.4002 18.0674 41.8298 18.33 42.23C18.8493 43.0261 19.6549 43.5919 20.58 43.81C19.13 44.47 18.2 44.51 17.67 43.81C17.14 43.11 16.94 41.61 17.16 39.65C17.0787 38.7175 17.2928 37.7831 17.772 36.9791C18.2512 36.175 18.9712 35.5421 19.83 35.17C21.95 32.3 24.21 30.59 26.19 28.57C28.2074 26.6826 29.6349 24.2513 30.3 21.57C30.09 21.57 29.87 21.62 29.66 21.66C29.91 21.55 30.18 21.46 30.43 21.37C32.01 21.13 33 21.46 33.01 22.07C33.02 22.68 32.1 23.61 30.28 25.38C28.46 27.15 27 28.75 25.34 30.4V30.39ZM30.15 52.06C30.24 51.13 30.55 50.9 30.74 51.54C30.8731 52.1155 30.96 52.7007 31 53.29C30.86 54.08 30.54 54.39 30.29 53.82C30.1218 53.2528 30.0741 52.6567 30.15 52.07V52.06ZM22 72.37C22.61 73.66 23.94 73.77 23.4 76.19C22.98 78.19 23.14 81.65 21.14 80.56C20.64 80.29 19.32 79.29 20.35 78.03C21.59 76.53 20.4 73 22 72.37ZM19.65 51.06C19.551 51.3149 19.4271 51.5594 19.28 51.79L19.4 49.94C19.52 49.99 19.72 49.99 19.72 50.1C19.747 50.4217 19.7234 50.7456 19.65 51.06ZM19.65 123.91C18.93 124.31 19.26 122.72 18.9 122.41L18.7 121.85L19 122.21L19.65 123.91ZM21 29.38L21.6 29L21.17 29.62L21 29.38ZM17.27 66.7C17.75 66.35 18.27 65.7 18.72 65.7C19.17 65.7 19.82 66.59 19.59 67.49C19.31 68.61 18.71 67.85 18.27 67.49C17.83 67.13 17.65 67.06 17.34 66.85L17.01 67.3L17.27 66.7ZM17 186.5C17 186.16 17 185.57 17.11 185.5C18.22 184.74 18.3 180.78 19.97 181.95C20.19 182.09 20.3 183.16 20.34 183.82C20.64 189.05 18.12 185.48 17 186.5ZM20.32 276.45C20.42 276.4 20.55 276.27 20.64 276.33C20.9259 276.548 21.1874 276.796 21.42 277.07C21.5945 277.319 21.7451 277.583 21.87 277.86C21.38 277.39 20.86 276.93 20.35 276.45H20.32ZM22.01 219.45C19.36 218.81 20.89 214.4 20.14 212.27C21.8 213.89 22.09 216.46 22 219.49L22.01 219.45ZM21.28 162.79H21.53L21.39 163.41L21.28 162.79ZM20.88 109.19C21.13 107.08 21.8 105.19 23.17 106.54C24.4544 107.753 25.6352 109.071 26.7 110.48C27.9462 112.236 29.0085 114.116 29.87 116.09C27.4 114.34 24.98 112.58 22.45 112.55C21.5 112.58 20.62 111.48 20.91 109.23L20.88 109.19ZM22.73 183.85C23.62 184.65 25.02 184.19 26.07 184.58C27.12 184.97 27.81 186.15 27.42 190.36L28.47 190.98C27.94 192.31 27.74 190.69 27.39 190.44C25.84 188.3 24.27 186.1 22.76 183.89L22.73 183.85ZM24.99 210.85C25.0033 211.385 24.9461 211.92 24.82 212.44C24.62 212.8 24.26 212.81 23.97 212.98C23.9487 212.452 23.9991 211.924 24.12 211.41C24.33 211.08 24.7 211.07 25 210.88L24.99 210.85ZM24.74 137.31L25.02 137.85L24.69 137.42L24.11 135.65C25 135.24 24.5 136.89 24.77 137.34L24.74 137.31ZM28.55 161C26.31 162.48 25.05 161.6 23.9 159.78C25.39 157.86 26.67 159 28.55 161ZM26.31 180.93V181.43L26 181L26.31 180.93ZM28.42 227.28L28.68 227.9L28.33 227.45L28.18 226.74L28.42 227.28ZM22.78 241.9C22.5832 240.268 22.8537 238.614 23.56 237.13C23.67 236.86 23.83 236.66 24.23 235.97C24.3 237.12 24.35 237.45 24.34 237.78C24.25 239.46 24.44 241.29 23.64 242.57C23.31 243.06 22.91 242.69 22.78 241.86V241.9ZM24.5 256.79C24.3048 256.288 24.1575 255.769 24.06 255.24C24.06 254.24 24.26 254.14 24.59 254.94C24.8431 255.419 25.0186 255.936 25.11 256.47C25.19 257.17 24.88 257.34 24.5 256.75V256.79ZM25.63 223.9C25.4691 224.693 25.0716 225.418 24.49 225.98C24.33 226.16 23.95 225.49 23.67 225.2C23.6164 224.784 23.6819 224.361 23.8589 223.98C24.0359 223.6 24.3172 223.277 24.67 223.05C25.08 222.7 25.78 222.13 25.63 223.86V223.9ZM29.44 267.28C28.9425 266.729 28.4879 266.14 28.08 265.52C27.7602 265.018 27.5143 264.472 27.35 263.9C26.9637 263.366 26.6289 262.797 26.35 262.2H27.15C27.185 262.491 27.2452 262.779 27.33 263.06C27.3901 263.355 27.4702 263.646 27.57 263.93C27.7127 264.182 27.8838 264.417 28.08 264.63C28.29 264.86 28.45 265.01 28.75 265.29L30.48 266.8C31.7458 267.787 32.5922 269.216 32.85 270.8C31.64 269.53 30.46 268.4 29.44 267.24V267.28ZM38.31 273.85C38.1045 273.944 37.8811 273.993 37.655 273.993C37.4289 273.993 37.2055 273.944 37 273.85C36.69 273.68 36.61 273.17 36.47 272.8C36.9072 272.816 37.3421 272.869 37.77 272.96C38.35 273.14 38.65 273.59 38.31 273.81V273.85ZM48.44 276.25C48.1753 276.338 47.8989 276.385 47.62 276.39C46.95 276.19 46.98 275.92 47.71 275.73C47.9611 275.689 48.2188 275.724 48.45 275.83C48.57 275.89 48.46 276.07 48.44 276.21V276.25ZM54.77 275.47C57.7 275.47 60.66 275.42 63.63 275.29C63.7355 275.484 63.8194 275.688 63.88 275.9C60.58 276.56 57.47 275.81 54.77 275.43V275.47ZM72.54 279.67V279.39L73.18 279.51L72.54 279.67ZM84.44 276.36C81.74 276.36 79.05 276.36 76.27 276.36L76.18 276.05C79.06 276.05 81.82 276.05 84.61 276.05L84.44 276.36ZM99.16 275.65L99.41 275.33L99.64 275.66L99.16 275.65ZM107.02 276.21L106.4 276.09L107.04 275.97L107.02 276.21ZM124.02 279.7C121.5 280.05 121.66 277.89 119.96 276.86C124.798 276.761 129.622 276.297 134.39 275.47C132.7 279.2 127.6 279.16 124.06 279.66L124.02 279.7ZM147.93 279.78C146.61 279.99 146.21 279.5 146.14 278.9C146.41 278.62 146.58 278.13 147 278.06C148.33 277.84 148.81 278.35 148.77 278.91C148.722 279.102 148.627 279.279 148.492 279.424C148.357 279.57 148.188 279.678 148 279.74L147.93 279.78ZM160.79 278.78C159.63 278.72 158.9 278.34 158.79 277.45C158.85 277.12 159.26 276.5 160.55 276.69C161.302 276.829 161.978 277.238 162.45 277.84C163.05 278.53 162.05 278.81 160.83 278.76L160.79 278.78ZM169.71 278.05C169.448 278.082 169.182 278.082 168.92 278.05C168.75 277.91 168.51 277.78 168.47 277.64C168.43 277.5 168.91 277.4 169.11 277.41C170 277.42 170.24 277.68 169.75 278L169.71 278.05ZM271.28 246.7C270.23 251.35 269.08 256 267.71 260.47C267.34 261.67 267.06 262.47 266.71 263.32C266.36 264.17 266.04 265.03 265.71 265.85C265.333 266.667 264.892 267.453 264.39 268.2C263.903 268.954 263.208 269.551 262.39 269.92C261.084 270.507 259.694 270.881 258.27 271.03C256.85 271.21 255.49 271.25 254.01 271.31C236.27 271.91 218.67 271.31 201.09 270.44C187.26 269.76 172.97 271.11 159.55 268.64C157.472 268.425 155.378 268.425 153.3 268.64C139.81 268.86 126.36 268.04 112.98 267.98C103.26 267.98 93.37 266.03 83.77 267.87C79.49 268.71 75.17 268.3 70.93 267.77C68.84 267.49 66.55 266.99 64.71 267.24C61.1841 267.749 57.6212 267.956 54.06 267.86C52.39 267.79 50.73 267.67 49.11 267.46C48.29 267.37 47.48 267.22 46.67 267.1C45.86 266.98 45.01 266.82 44.32 266.67C43.63 266.52 43.02 266.36 42.52 266.2C42.1369 266.079 41.7627 265.932 41.4 265.76C41.1478 265.632 40.904 265.489 40.67 265.33L39.58 264.52C38.58 263.72 37.34 262.71 36.18 261.71L34.49 260.23L34.12 259.9C34.0601 259.884 34.0052 259.853 33.96 259.81L33.56 259.54C33.1676 259.24 32.8294 258.874 32.56 258.46C32.4305 258.284 32.323 258.092 32.24 257.89C32.24 257.81 32.14 257.65 32.08 257.51C32.0176 257.363 31.9641 257.213 31.92 257.06C31.53 255.79 31.29 254.64 31.06 253.6C30.95 253.07 30.82 252.6 30.68 252.08C30.54 251.56 30.4 251.08 30.21 250.51C30.02 249.94 29.8 249.39 29.55 248.74L28.63 246.51C28.1196 246.106 27.6802 245.619 27.33 245.07C27.05 244.47 27.33 243.83 27.69 244.24C28.1061 244.877 28.4706 245.545 28.78 246.24C29.0976 246.465 29.4319 246.666 29.78 246.84C31.68 247.62 32.72 247.84 33.17 247.14C33.62 246.44 33.45 244.76 33.17 241.39C32.8084 239.458 32.8322 237.473 33.24 235.55C33.7529 233.701 34.1239 231.815 34.35 229.91C34.45 228.91 34.53 227.8 34.57 226.76C34.61 225.72 34.57 224.7 34.57 223.69C34.3332 219.748 33.7408 215.835 32.8 212C32.14 209.08 31.03 205.81 32.25 202.92C33.75 199.4 33.17 195.92 32.45 192.22C32.11 190.49 30.94 188.62 32.23 186.88C32.7113 186.285 33.0321 185.576 33.1616 184.821C33.2912 184.067 33.2252 183.292 32.97 182.57C32.4353 181.21 32.0725 179.789 31.89 178.34L32.19 176.96L31.47 177.54C30.85 176.29 31.25 175.44 31.58 174.07C33.58 165.7 34.8 157.25 32.27 148.41C32.5026 148.035 32.643 147.61 32.6795 147.17C32.716 146.73 32.6476 146.288 32.48 145.88C34.7671 140.463 34.871 134.372 32.77 128.88C32.03 126.81 31.66 124.22 31.06 121.88L30.76 121.35L31.13 121.71C32.86 121.96 33.35 120.47 32.68 117.08C32.01 113.69 31.01 110.6 31.62 107.08C32.31 103.08 32.67 101 32.27 99.42C31.87 97.84 30.75 96.71 28.55 94.42C27.88 96.04 27.25 99.06 26.36 94.57C25.66 92.72 24.41 91.15 25.63 87.21C25.93 90.21 26.2 92.29 26.45 94.36L28.45 94.23C30.09 91.35 33.7 89.84 30.34 83.77C30.3592 83.1639 30.481 82.5654 30.7 82C32.32 77.12 31.36 72.32 31.17 67.48C31.01 63.48 29.99 59.96 27.7 60.42C24.86 61.01 24.22 57.1 22.86 54.54L22.54 54.95L22.79 54.36C23.2008 52.6534 23.508 50.9236 23.71 49.18C23.82 48.31 23.9 47.43 23.97 46.56C24.04 45.69 24.06 45.03 24.09 44.24C23.829 43.8154 23.6874 43.3283 23.68 42.83C23.5997 42.248 23.6579 41.6552 23.85 41.1C24.18 40.03 24.46 39.1 23.3 38.75C22.4 38.54 22.83 37.2 24.3 36.25C25.04 35.77 26.03 35.5 26.38 35.77C26.6297 35.9526 26.8362 36.188 26.9848 36.4593C27.1334 36.7306 27.2205 37.0313 27.24 37.34C27.3104 37.993 27.2033 38.6528 26.93 39.25C26.5814 40.0031 26.1486 40.7142 25.64 41.37C25.3267 41.7641 25.0553 42.1897 24.83 42.64C24.6493 43.1634 24.4424 43.6774 24.21 44.18C24.54 44.88 24.91 45.55 25.16 46.25C25.4343 47.1807 25.5059 48.1593 25.37 49.12C24.69 54.31 26.82 55.22 28.37 57.05C30.11 59.11 31.86 58.34 33.31 55.05C33.9696 53.401 34.1734 51.6049 33.9 49.85C33.7941 48.9949 33.565 48.1596 33.22 47.37C32.7901 47.0292 32.3279 46.7311 31.84 46.48C30.96 46.03 30.11 45.74 30.2 44.59C30.267 44.3518 30.3848 44.1311 30.5454 43.9429C30.7059 43.7547 30.9054 43.6036 31.13 43.5C31.3247 43.3871 31.544 43.3236 31.7688 43.3148C31.9937 43.3061 32.2172 43.3525 32.42 43.45C33.047 43.8238 33.7191 44.1161 34.42 44.32C34.622 44.3527 34.828 44.3527 35.03 44.32H35.15L35.36 44.18C35.5 44.07 35.63 43.96 35.77 43.83C36.9335 42.5516 38.0125 41.1987 39 39.78C38.75 38.48 37.77 38.72 36.79 38.86C34.86 39.13 33.5 38.47 35.35 36C35.9623 35.1495 36.8263 34.5128 37.82 34.18C38.168 34.1331 38.5221 34.1787 38.8468 34.3121C39.1716 34.4455 39.4555 34.6621 39.67 34.94C40.02 35.34 40.22 35.94 40.58 36.31C41.3187 37.0352 42.111 37.7037 42.95 38.31L43.16 38.5H43.54C43.88 38.5 44.2 38.43 44.54 38.38C45.1643 38.2588 45.7445 37.9721 46.22 37.55C48.0724 35.9967 50.4029 35.1281 52.82 35.09C55.22 34.92 57.75 35.09 60.58 34.94C65.45 34.6 71.19 34.89 77.05 34.01C77.9925 33.8991 78.9148 33.6568 79.79 33.29C80.31 33.0877 80.7611 32.7407 81.09 32.29C81.2941 31.882 81.3859 31.4271 81.356 30.972C81.3261 30.5168 81.1757 30.0778 80.92 29.7C81.08 29.56 81.41 29.38 81.35 29.27C81.1323 28.9778 80.8805 28.7126 80.6 28.48C82.52 27.64 83.82 27.92 84.25 29.08C84.91 30.81 83.31 33.08 86.25 34.2C89.19 35.32 92.89 33.54 96.38 33.83C97.4304 33.8646 98.4818 33.8446 99.53 33.77C100.46 34.12 101.29 34.77 102.53 33.99L100.28 33.23C102.21 31.48 105.54 30.82 108.95 30.23C109.84 30.08 111.75 29.73 110.49 29.28C105.12 27.36 109.68 27.45 111.87 27.64C116.16 28 116.55 29.16 113.18 31.35C111.83 32.22 109.73 32.99 111.7 34.08C112.662 34.6034 113.752 34.8454 114.845 34.7782C115.938 34.711 116.99 34.3373 117.88 33.7C122.88 30.7 129.5 31.6 135.79 31.98L137.79 30.92L140.09 30.51L137.97 31.01L135.97 32.06C136.16 34.06 138.21 34.64 141.45 33.85C143.58 33.33 145.26 32.35 147.29 31.7C148.69 31.25 150.9 30.7 150.98 32.23C151.11 34.66 153.37 34.36 156.33 33.67C159.194 32.8329 162.167 32.4317 165.15 32.48C167.54 36.12 171.71 33.97 176.2 33.98C172.97 31.68 169.2 32.36 166.02 31.98C166.78 31.63 167.78 30.89 168.28 30.98C176.21 32.38 183.28 30.47 191.16 29.72L188 34.5C188.497 34.805 189.027 35.0532 189.58 35.24C192.72 35.97 194.83 38.4 199.47 36.44C205.21 34.04 197.33 34.51 197.33 33.5C197.33 32.82 198.33 32.19 198.56 31.5C198.98 29.94 200.34 28.43 198.25 26.76C196.32 25.24 197.39 24.18 200.32 23.27C202.71 22.53 204.13 21.27 206.52 23.49C207.35 24.25 210.59 24.22 211.07 23.39C213.35 19.44 217.92 21.62 222.07 22.39C218.5 25.2 213.79 26.39 207.07 25.91C203.72 25.71 201.59 26.73 204.94 28.62C206.459 29.6992 208.25 30.3298 210.11 30.44L210.75 30.23L210.17 30.48C209.044 30.8729 208.041 31.5559 207.264 32.4601C206.486 33.3644 205.96 34.4578 205.74 35.63C205.37 37.29 207.01 38.12 210.11 37.55C214.079 36.9006 218.089 36.533 222.11 36.45C224.22 36.36 224.31 35.35 222.65 34.45C222.351 34.6667 222.007 34.8141 221.644 34.8816C221.281 34.949 220.907 34.9348 220.55 34.84C220.65 34.75 220.71 34.59 220.86 34.57C221.41 34.49 221.99 34.45 222.57 34.39C223.13 33.59 222.77 32.24 224.57 32.12C226.8 31.98 227.42 33.95 230.97 33.91C232.97 33.91 230.3 35.44 229.56 36.26C228.96 36.91 228.56 37.57 229.84 38.26C231.906 37.4578 234.103 37.0442 236.32 37.04C238.465 37.0263 240.601 36.7509 242.68 36.22C245.16 35.41 244.26 34.71 242.53 33.77C241.44 33.18 239.2 34.19 238.38 31.77C243.3 32.64 247.47 33.37 251.49 33.23C251.94 34.92 248.93 34.8 249.81 36.64C251.161 36.7467 252.466 37.1827 253.61 37.91C254.138 38.2164 254.707 38.4455 255.3 38.59C255.864 38.7212 256.456 38.6467 256.97 38.38C257.827 37.9151 258.799 37.7022 259.772 37.7659C260.745 37.8296 261.681 38.1673 262.47 38.74C264.022 39.9901 265.158 41.681 265.73 43.59C263.73 41.28 262.17 41.28 260.98 43.15C260.589 43.7303 260.26 44.3504 260 45C259.904 45.2143 259.866 45.4503 259.891 45.6839C259.915 45.9175 260.001 46.1404 260.14 46.33C260.671 47.4108 260.925 48.6066 260.88 49.81C260.928 51.5922 261.194 53.3619 261.67 55.08C262.21 56.86 259.84 60.08 262.8 60.94C264.43 61.43 265.3 65.1 267.28 64.8C270.7 64.25 270.77 64.49 269.69 70.93C267.75 69.01 265.76 67.12 263.52 65.04C263.52 68.97 261.43 70.89 261.52 73.8C261.52 79.18 265.21 74.69 266.29 79.33C263.89 80.19 262.88 81.89 263.2 87.43C263.52 92.97 264.2 98.11 264.47 103.53C264.74 108.95 265.89 115.77 264.72 119.81C262.45 127.63 264.92 129.39 267.07 132.44C266.998 132.748 266.908 133.052 266.8 133.35C265.74 136.47 266.69 138.81 267.48 141.08C268.291 143.34 268.521 145.768 268.15 148.14C266.42 158.98 269.55 167.08 271.76 175.58C272.1 176.86 273.12 177.93 274.11 176.34C274.19 172.59 272.95 169.77 272.41 166.47C272.2 165.18 271.68 162.84 272.41 162.79C276.69 162.54 273.96 155.79 275.04 152.42C277.66 158.36 276.66 165.36 276.77 171.8C276.93 182.18 279.3 192.13 277.65 202.8C277.46 204.1 276.89 205.65 277.58 206.92C277.11 210.78 276.58 214.62 275.89 218.38C274.09 227.76 273.38 237.41 271.32 246.68L271.28 246.7ZM31.82 147.59L32.04 146.84C32.1376 147.283 32.1846 147.736 32.18 148.19L31.82 147.59ZM268.73 92.87L268.56 93.49L268.45 92.81L268.73 92.87Z" fill="#199C72"/>
<path d="M259.55 40.27C259.2 40.27 258.86 40.18 258.55 40.11C258.24 40.04 257.87 39.98 257.55 39.92C257.23 39.86 256.89 39.75 256.55 39.69C255.12 39.36 253.55 38.98 251.77 38.45C250.405 37.9566 248.907 37.9815 247.56 38.52C246.992 38.8426 246.526 39.3183 246.214 39.8929C245.903 40.4674 245.76 41.1178 245.8 41.77C247.613 41.5383 249.453 41.64 251.23 42.07C252.77 42.44 253.98 42.99 255.09 43.35C255.416 43.4806 255.75 43.5908 256.09 43.68C256.322 43.7535 256.56 43.8103 256.8 43.85C257.193 43.9084 257.594 43.8345 257.94 43.64C259.075 42.7952 260.005 41.7047 260.66 40.45C260.19 40.4 259.86 40.34 259.55 40.27Z" fill="#199C72"/>
</svg>
