<svg width="300" height="300" viewBox="0 0 300 300" fill="none" xmlns="http://www.w3.org/2000/svg">
<path d="M297.45 195.69L297.25 191.32L297 187C296.86 184.42 296.76 181.92 296.73 179.39C296.717 178.317 296.617 177.247 296.43 176.19C295.122 168.64 295.074 160.925 296.29 153.36C296.553 150.753 296.405 148.121 295.85 145.56C296.23 144.89 296.26 144.36 295.93 144.19C295.83 144.19 295.68 144.58 295.55 144.8C296.07 137.75 295.92 130.51 296.05 123.39C296.05 120.51 296.16 117.77 296.14 114.61C296.12 111.45 296.05 108.68 295.97 105.81L295.41 89.22C295.26 83.9 295.16 78.66 295.35 74.12L295.73 65.75C295.84 62.82 295.91 59.75 295.88 56.62C295.88 52.62 295.64 48.26 295.53 43.79C295.53 43.09 295.47 42.39 295.43 41.69C295.43 41.34 295.36 40.94 295.31 40.57L295.14 39.25C294.84 37.3552 294.419 35.4814 293.88 33.64C293.58 32.74 293.27 31.83 292.93 30.94C292.59 30.05 292.17 29.18 291.77 28.32C291.362 27.4554 290.884 26.6259 290.34 25.84C290.059 25.448 289.812 25.0333 289.6 24.6L288.78 23.42C287.95 22.34 287.07 21.3 286.16 20.28C285.69 19.77 285.25 19.28 284.74 18.76L283.69 17.68C282.3 16.27 280.9 14.98 279.37 13.68C278.59 13.03 277.8 12.4 276.89 11.68C275.8 10.86 274.62 10.04 273.44 9.31001C271.062 7.83289 268.517 6.64134 265.86 5.76001C264.53 5.32001 263.18 4.94001 261.86 4.63001L260.8 4.40001L259.91 4.23001L258.26 3.95001C257.21 3.79001 256.26 3.67001 255.32 3.57001L254 3.42001L252.67 3.30001C250.88 3.13001 249.08 3.00001 247.29 2.91001C243.7 2.71001 240.16 2.64001 236.79 2.55001C232.23 2.44001 228.11 2.55001 224.37 2.62001C222.49 2.62001 220.69 2.62001 218.94 2.62001H212.94C204.68 2.57001 196.41 2.62001 188.23 2.49001C172.68 2.23001 157.1 2.57001 141.6 2.34001C137.6 2.27001 132.92 2.12001 129.9 3.92001L130.38 4.17001L129.68 4.00001C124.433 3.07986 119.097 2.77446 113.78 3.09001C93.3101 4.36001 72.8301 4.09001 52.2301 5.40001L49.9401 5.54001L48.8001 5.60001L47.2301 5.68001C44.288 5.74241 41.351 5.95267 38.4301 6.31001C32.8449 6.96338 27.4894 8.91176 22.7901 12C22.3001 12.34 21.7901 12.71 21.3601 13.08L21.0101 13.36L20.9201 13.43C21.0801 13.64 20.9201 13.5 20.9801 13.55L20.8101 13.7L20.1301 14.29L18.8001 15.48C18.3701 15.9 18.0401 16.38 17.6501 16.83C16.1577 18.7236 14.908 20.7963 13.9301 23C11.9889 27.6283 10.5961 32.4679 9.78006 37.42L9.42006 39.29C9.29006 39.98 9.27006 40.29 9.20006 40.64L8.87006 42.87C8.67006 44.33 8.47006 45.8 8.30006 47.23C7.95006 50.11 7.66006 52.93 7.40006 55.73C6.40006 66.93 5.83006 77.84 5.46006 88.73C4.92006 105.23 4.64006 121.63 4.46006 138C4.28006 154.37 4.24006 170.7 4.33006 187C4.33956 189.592 4.48308 192.182 4.76006 194.76C4.47006 199.6 4.22006 204.47 4.08006 209.39C3.90006 215.76 3.87006 222.18 4.08006 228.66C4.16006 231.9 4.30339 235.153 4.51006 238.42C4.59006 240.04 4.73006 241.68 4.85006 243.32C4.97006 244.96 5.12006 246.63 5.33006 248.45C5.69156 251.891 6.29303 255.303 7.13006 258.66C8.1691 262.8 9.7956 266.771 11.9601 270.45C14.3492 274.387 17.3695 277.904 20.9001 280.86C24.1403 283.517 27.7181 285.733 31.5401 287.45C34.8667 288.964 38.3243 290.173 41.8701 291.06C45.0113 291.884 48.1963 292.532 51.4101 293C54.4101 293.42 57.4101 293.69 60.2001 293.88C62.9901 294.07 65.5201 294.19 68.2001 294.3C69.3764 294.348 70.5486 294.468 71.7101 294.66C82.4901 296.66 93.6201 296.59 104.59 296.96C119.5 297.45 134.43 297.57 149.18 298.33C162.54 299.03 175.8 298.81 189.11 298.59C196.89 298.45 204.67 298.38 212.42 298.16L223.68 297.76C227.27 297.62 231.13 297.53 235.46 297.21C241.07 296.8 247.72 296.44 254.58 294.88C256.28 294.54 257.98 294.03 259.67 293.56C261.36 293.09 263.03 292.49 264.61 291.83C265.41 291.51 266.24 291.21 267.01 290.83L268.45 290.17L270.23 289.31C270.765 289.041 271.279 288.733 271.77 288.39C272.28 288.09 272.77 287.78 273.27 287.39C274.244 286.716 275.182 285.992 276.08 285.22L277.36 284.11L278.21 283.34C278.79 282.82 279.3 282.34 279.84 281.82C280.89 280.82 281.9 279.82 282.91 278.73L284.57 276.94C285.32 276.11 286.03 275.3 286.79 274.37C288.303 272.614 289.671 270.738 290.88 268.76C293.34 264.83 293.88 260.14 294.63 255.59L295.63 247.48C297.084 236.071 297.809 224.581 297.8 213.08C297.83 207.31 297.7 201.5 297.45 195.69ZM11.6201 230.85L11.4901 231.54L11.3601 230.74L11.6201 230.85ZM9.43006 212.35C9.4388 212.193 9.46909 212.038 9.52006 211.89C9.71006 212.3 9.90006 212.72 10.1001 213.14C9.74006 213.66 9.38006 213.25 9.43006 212.35ZM10.4301 220.57L10.8201 220.25C10.9663 220.458 11.0716 220.692 11.1301 220.94C11.1301 221.99 10.9701 222.22 10.6301 221.53C10.524 221.219 10.4536 220.897 10.4201 220.57H10.4301ZM10.8201 251.31L10.6301 251.85L10.6901 251.08C10.9501 249.91 11.2401 248.78 11.5501 247.7C12.4901 251.09 11.0001 250 10.8101 251.31H10.8201ZM279 97.74C279.115 98.3499 279.102 98.9771 278.96 99.5815C278.819 100.186 278.553 100.754 278.18 101.25C277.89 100.97 277.43 100.8 277.37 100.38C277.219 99.7823 277.216 99.1568 277.36 98.5575C277.505 97.9582 277.793 97.4031 278.2 96.94C278.34 96.75 278.91 97.32 279 97.74ZM277.19 52.17C277.234 51.8917 277.301 51.6174 277.39 51.35C277.45 52.01 277.47 52.66 277.51 53.35C277.41 53.35 277.25 53.35 277.24 53.22C277.17 52.8746 277.143 52.522 277.16 52.17H277.19ZM277.08 124.54C277.17 124.03 277.54 123.78 277.78 123.42C277.872 124.083 277.925 124.751 277.94 125.42C277.94 126.34 277.65 126.64 277.3 126.34C277.149 125.751 277.066 125.147 277.05 124.54H277.08ZM276.69 134.8L276.77 135.53L276.54 135.46L276.69 134.8ZM237.71 21C239.57 21.91 235.71 22.29 233.97 22.73C233.278 22.7163 232.59 22.6224 231.92 22.45C233.12 21.31 236.11 20.25 237.71 21ZM207.18 21C208.98 21 211.02 21 211.85 22.19C208.64 22.61 205.66 22.78 202.73 21.75C203.4 20.62 205.66 21.11 207.18 21.08V21ZM191.49 21.08C191.843 21.0499 192.197 21.0499 192.55 21.08C193.36 21.26 193.16 21.42 192.02 21.46C191.684 21.4412 191.35 21.3977 191.02 21.33L191.49 21.08ZM186.17 15.86C186.471 15.7686 186.778 15.7017 187.09 15.66L187.42 16.08C187.204 16.2092 186.967 16.3006 186.72 16.35C185.69 16.46 185.48 16.26 186.17 15.94V15.86ZM180.36 32.76L179.36 33.76L178.67 33.93L179.16 33.67L180.36 32.76ZM174.36 33.21C174.56 31.32 168.56 28.46 179.85 29.37L174.36 33.21ZM172.28 24.81C172.99 24.88 173.72 24.92 174.39 25.02C175.45 25.18 177.77 24.94 176.44 25.95C176.014 26.1669 175.547 26.2907 175.069 26.3131C174.591 26.3355 174.115 26.2561 173.67 26.08C173.084 25.8108 172.546 25.4458 172.08 25L169.9 24.75C171 24.07 171.46 24.83 172.24 24.89L172.28 24.81ZM161.69 35C161.49 35.12 161.33 35.32 161.08 35.35C160.2 35.44 159.67 35.26 159.73 34.89C159.73 34.76 160.06 34.56 160.31 34.53C161.19 34.47 161.67 34.65 161.69 35ZM160.34 21C160.6 21 160.73 21.23 160.92 21.35C160.72 21.44 160.53 21.61 160.33 21.61C160.028 21.6206 159.727 21.5625 159.45 21.44C159.08 21.1 159.45 20.92 160.34 21ZM25.1301 35.27C26.0601 31.75 27.3901 28.35 30.0101 26.34C30.3652 26.0119 30.7392 25.7047 31.1301 25.42C31.5501 25.18 31.9601 24.92 32.4001 24.71C36.4901 22.71 41.0101 22.13 45.6201 21.86L49.0201 21.68L52.0001 21.54C54.0001 21.48 55.9101 21.46 57.8701 21.54C58.5155 21.1331 59.2573 20.9048 60.0198 20.8785C60.7823 20.8521 61.5381 21.0286 62.2101 21.39C63.3101 21.51 64.5001 21.57 65.5001 21.77C66.3401 21.94 67.8001 22.12 66.6401 22.77C65.963 22.7435 65.2916 22.6361 64.6401 22.45C63.6401 22.19 62.8101 21.89 61.9001 21.6C60.6281 21.3528 59.3174 21.3869 58.0601 21.7L52.1401 22.29L49.1401 22.57L47.5201 22.69L45.8301 22.8C41.3601 23.07 36.8301 23.3 32.5801 25.04C32.0901 25.23 31.6401 25.47 31.1601 25.69C30.6801 25.91 30.2901 26.24 29.9201 26.58C27.8701 29.41 26.8501 32.71 25.8101 35.98C24.7701 39.25 23.9301 42.88 23.2401 45.57C23.7401 42.77 24.2301 38.77 25.1301 35.27ZM67.0001 26.59V27.59C66.1701 27.5 65.3601 27.38 64.5701 27.24L64.1701 27L64.8101 27.18L67.0001 26.59ZM51.3401 28.32C50.3401 28.32 48.6401 28.32 48.4201 28.04C48.2001 27.76 48.2901 27.61 48.6701 27.43C49.2986 27.2024 49.9541 27.0579 50.6201 27C51.4062 27.0654 52.1799 27.237 52.9201 27.51C53.9001 28.18 52.3401 28.31 51.3401 28.32ZM35.1801 28.32H35.1201C34.9101 28.37 34.6901 28.41 34.4801 28.48C34.6401 28.35 34.8101 28.24 34.9801 28.12L35.0701 28.06L35.1801 28.32ZM26.4801 58.1C26.6601 55.88 26.5501 53.63 27.7801 51.29C28.0569 53.6397 27.603 56.0176 26.4801 58.1ZM22.5701 53.6C22.6401 53.34 22.8601 53.24 23.0101 53.06C23.1073 53.2675 23.165 53.4913 23.1801 53.72C23.1601 54.0302 23.0602 54.3299 22.8901 54.59C22.4601 54.92 22.3301 54.51 22.5701 53.6ZM20.7401 66.06H21.0001C20.4001 72.52 19.9201 78.96 19.5101 85.4H19.2501C19.6601 79 20.1401 72.51 20.7401 66.06ZM18.8201 95.15V95.87L18.6101 95.8L18.8201 95.15ZM13.0001 218C13.1335 218.094 13.2847 218.161 13.4446 218.195C13.6044 218.23 13.7696 218.231 13.9301 218.2C13.8516 218.595 13.6802 218.965 13.4301 219.28C13.1401 219.53 12.8901 218.83 13.0001 218ZM13.2901 230.6C13.0501 229.6 13.1301 228.21 13.6001 227.88C14.4101 227.29 14.6001 229.22 14.8401 230.12C15.1301 231.83 14.8401 232.69 14.3501 232.46C13.7974 231.961 13.4336 231.286 13.3201 230.55L13.2901 230.6ZM18.2401 261.99C17.5901 260.92 17.0301 259.58 16.5401 258.57C15.2601 257 13.3201 255.43 15.0001 253C15.0001 251.79 15.0001 250.6 15.0601 249.48C15.0601 249.29 15.4201 249.25 15.4401 249.31C15.9501 251.31 15.3001 252 15.2101 253.31C15.5684 254.966 16.0157 256.602 16.5501 258.21C18.0587 259.891 19.3737 261.736 20.4701 263.71C19.7101 263.8 18.9401 263 18.2701 261.94L18.2401 261.99ZM17.0301 225.92H17.2601L17.1701 226.64L17.0301 225.92ZM21.7101 246.33C21.0901 248.13 20.8201 245.7 20.3601 244.9C19.9001 244.1 19.6501 243.95 19.3601 244.6C18.9533 246.236 18.7352 247.914 18.7101 249.6C18.2601 246.74 18.0201 244.1 17.8101 241.6C17.6001 239.1 17.4201 236.6 17.2701 234.17C17.8901 239.03 20.1101 239.85 21.3501 243.08C21.6864 244.111 21.8189 245.198 21.7401 246.28L21.7101 246.33ZM19.3401 231C19.4501 230.07 19.7301 229.88 20.0601 230.67C20.3297 231.277 20.4889 231.927 20.5301 232.59C20.5301 233.59 20.1801 233.73 19.8501 232.92C19.6373 232.292 19.4669 231.651 19.3401 231ZM20.2201 223.29C19.3001 222.29 19.0901 219.63 18.9601 217.51C18.9732 215.655 19.1236 213.803 19.4101 211.97L19.1701 211.34L19.4501 211.86C20.1601 212.7 21.0401 213.16 21.5601 214.44C22.5081 216.708 22.6145 219.24 21.8601 221.58C21.4901 222.55 20.6001 223.68 20.2201 223.26V223.29ZM22.2201 230.67C22.0986 230.417 22.0144 230.147 21.9701 229.87C21.9701 229.28 22.1201 228.73 22.2101 228.17L22.4601 228.99L22.2201 230.67ZM25.0001 274.08C23.8701 273.08 23.7001 272.7 24.5201 273.15C24.9152 273.443 25.2774 273.779 25.6001 274.15C25.8301 274.41 25.9601 274.65 26.1401 274.89C25.7342 274.658 25.3524 274.387 25.0001 274.08ZM41.3301 281.93C40.7285 281.449 40.223 280.858 39.8401 280.19C38.1388 279.644 36.4695 279.003 34.8401 278.27C34.4101 278.42 33.9801 278.58 33.5401 278.7C32.0901 277.36 34.2801 278.37 34.6901 278.15C35.5001 277.9 35.8901 277.26 37.8401 278.03C39.7901 278.8 39.7301 279.51 40.0301 280.19C40.9076 280.713 41.7555 281.284 42.5701 281.9C43.1001 282.34 42.0801 282.43 41.3701 281.93H41.3301ZM37.4801 274.93C35.1701 274.08 33.3501 272.61 32.9301 270.56C33.8001 270.86 33.9801 270.78 33.4201 270.39C33.2801 270.29 32.9701 270.33 32.7401 270.31C32.3152 269.912 31.9301 269.473 31.5901 269C31.2001 268.53 30.8201 268.06 30.4801 267.61C29.7501 266.76 28.9801 266.25 27.9201 266.66C27.5532 266.782 27.1605 266.803 26.7825 266.722C26.4045 266.642 26.055 266.461 25.7701 266.2C24.9061 265.402 24.1677 264.479 23.5801 263.46C22.8301 262.23 22.5801 260.99 23.0001 260.69C23.9301 260.11 25.2601 260.94 26.8401 262.59C29.0445 265.015 31.6617 267.03 34.5701 268.54C35.5701 268.44 35.1301 267.3 35.0801 266.46C35.0301 265.62 35.3001 265.04 37.3801 265.76C38.2257 266.027 38.9624 266.56 39.4801 267.28C39.9706 267.976 40.5641 268.593 41.2401 269.11C41.8501 270.43 42.3701 271.7 40.8401 272.4C39.5901 272.97 39.4801 273.62 40.3001 274.4C40.8537 274.889 41.4859 275.281 42.1701 275.56C42.5901 275.75 43.0501 275.95 43.5501 276.14C44.0501 276.33 44.6001 276.49 45.1801 276.66C42.5762 276.331 40.0107 275.748 37.5201 274.92L37.4801 274.93ZM22.7701 253.76H22.9901L23.0601 254.46L22.7701 253.76ZM23.2101 236.58C23.9442 238.233 24.3776 240.004 24.4901 241.81C24.6701 243.69 24.7301 245.69 25.0701 247.81C24.2389 246.138 23.624 244.367 23.2401 242.54C23.0294 240.559 23.0193 238.563 23.2101 236.58ZM25.6901 252.65L25.9701 253.28L25.7401 253.33L25.6901 252.65ZM26.3601 239.65L26.4401 240.65L26.5401 241.65C26.3266 241.363 26.1969 241.022 26.1651 240.665C26.1333 240.309 26.2008 239.951 26.3601 239.63V239.65ZM26.9801 247.87L27.3201 248.4L27.6801 248.9L27.2701 248.56L26.9801 247.87ZM28.5601 259C28.7423 259.628 28.9593 260.246 29.2101 260.85C29.0251 260.703 28.8692 260.524 28.7501 260.32C28.6484 259.886 28.5848 259.445 28.5601 259ZM51.0801 283.69C50.0101 283.05 49.0801 282.41 48.0801 281.81C48.6688 281.755 49.2613 281.755 49.8501 281.81C51.1001 282.06 51.8501 282.5 51.9401 283.01C52.0001 283.2 51.4801 283.37 51.0801 283.65V283.69ZM61.6801 284.87C58.0601 283.65 56.1801 282.54 58.4601 281.31C59.1418 281.159 59.8483 281.159 60.5301 281.31C63.8501 282.45 61.8001 283.48 61.6801 284.83V284.87ZM65.3201 279C64.5425 279.3 63.7085 279.424 62.8772 279.366C62.0459 279.307 61.2378 279.066 60.5101 278.66C60.3166 278.441 60.1612 278.191 60.0501 277.92C60.0501 277.82 60.4501 277.75 60.6701 277.66C60.5301 276.4 59.3401 275.54 56.0901 275.28C53.7253 275.847 51.2403 275.629 49.0101 274.66C51.7901 274.94 53.8501 275.05 55.9001 275.13C60.2001 274.24 65.9001 275.32 70.2201 274.36L69.6101 274.06L70.3701 274.3C72.5101 275.5 75.8601 275.57 78.8601 276.43C71.8901 275.48 70.2201 278.43 65.3201 279ZM72.1001 269.7C72.4001 269.53 72.7101 269.17 73.1001 269.17C73.7289 269.202 74.3477 269.341 74.9301 269.58C75.6501 269.88 75.5601 270.21 74.7501 270.28C74.2902 270.367 73.8173 270.357 73.3612 270.252C72.9051 270.147 72.4757 269.949 72.1001 269.67V269.7ZM78.1601 272.94L78.6101 272.67L78.8201 273.02L78.1601 272.94ZM95.1601 277.48C93.1601 278.43 95.6501 280.72 90.1601 280.54C87.1601 280.42 84.2601 280.54 79.6701 280.54C82.5801 278.86 87.0901 279.54 87.8901 278.06C88.4901 276.97 88.1201 275.61 92.3701 276.53C93.4101 276.72 96.3501 276.84 95.1101 277.45L95.1601 277.48ZM82.5701 273.11C82.5701 272.11 83.1601 271.11 85.9101 271.17C87.6801 271.17 88.1701 271.98 88.2701 272.64C88.4301 273.71 87.3901 274.54 84.8201 274.57C82.7701 274.56 82.8501 273.69 82.5201 273.08L82.5701 273.11ZM112.23 277.33C109.23 277.17 106.53 278.07 103.42 277.59C108.56 272.54 109.27 272.38 119.37 273.52L119.98 273.31L119.55 273.6C117.4 274.94 113.72 275.72 112.27 277.31L112.89 277.59L112.23 277.33ZM128.14 283.93C130.14 285.01 127.52 286.05 124.42 286.28C122.245 286.374 120.081 286.645 117.95 287.09C126.19 282.58 126.15 282.51 116.95 281.17C117.449 280.933 117.982 280.774 118.53 280.7C122.75 281.31 125.53 278.75 128.53 279.57C132.8 280.69 124.71 282.06 128.09 283.9L128.14 283.93ZM135.94 278.22C135.421 278.362 134.875 278.373 134.351 278.251C133.827 278.128 133.342 277.877 132.94 277.52C132.86 277.44 133.16 277.18 134.1 277.19C134.758 277.178 135.414 277.276 136.04 277.48C136.31 277.59 136.2 278.12 135.89 278.19L135.94 278.22ZM143.46 291.46C143.68 292.23 139.87 291.61 140.16 290.37C140.35 289.56 141.1 288.78 141.16 287.98C141.26 286.87 139.97 285.72 142.51 284.14C144.06 284.95 144.89 285.48 145.95 285.92C151.79 288.26 142.85 289.39 143.41 291.43L143.46 291.46ZM143.57 268.11L143.84 267.82L144.09 268.12L143.57 268.11ZM151.88 276.95L152.55 276.03C154.08 276.51 152.24 276.69 152.08 277.03C149.652 277.813 147.064 277.968 144.56 277.48L149.41 273.93L150.34 273.08C151.64 273.6 149.97 273.71 149.63 274C149.11 275.1 149.32 276.17 151.83 276.92L151.88 276.95ZM159.05 279.95C156.29 281.06 152.66 280.63 149.42 280.89C148.49 281.38 146.72 281.89 145.92 281.5C144.67 280.93 146.76 281.21 147.26 281.06C147.896 280.913 148.54 280.81 149.19 280.75C152.09 279.85 155.7 280.27 158.87 279.87L159.6 279.67L159.05 279.95ZM158.41 277.78L170.12 273.95C176.56 275.72 171.71 277.36 168.96 278.58C164.91 280.33 163.71 277.62 158.36 277.77L158.41 277.78ZM169.68 284.22C169.49 284.14 169.56 283.95 169.51 283.81C169.816 283.746 170.128 283.713 170.44 283.71C170.73 283.76 171.1 283.93 171.09 284.04C171 284.44 170.4 284.52 169.63 284.21L169.68 284.22ZM175.4 280.99C173.03 282.21 169.91 281.47 165.4 281.66C166.104 281.411 166.826 281.217 167.56 281.08C170.34 281.52 172.28 279.58 175.2 280.55C175.35 280.62 175.5 280.91 175.35 281L175.4 280.99ZM217 267.57C216.95 266.72 218.55 266.67 219.82 266.57C221.18 266.57 222.62 266.67 222.38 267.22C222.06 267.99 220.18 267.95 218.77 267.94C218.16 267.95 217.555 267.824 217 267.57ZM230.08 262.85C230.376 262.755 230.681 262.692 230.99 262.66C231.75 262.77 231.75 263.01 230.99 263.27C230.711 263.336 230.42 263.336 230.14 263.27C230 263.15 230.07 263 230.07 262.85H230.08ZM185.68 265.31C190.17 263.65 193.29 263.99 197.81 264.41C193.75 266 190.33 265.67 185.67 265.31H185.68ZM186.68 280.55C186.68 280.71 186.68 280.87 186.68 281.03L184.39 280.87C185.148 280.827 185.9 280.72 186.64 280.55H186.68ZM240.86 278.72L240.14 279.66C238.66 279.27 240.44 278.99 240.62 278.66C241.38 277.66 240.2 276.43 243.96 275.66C244.31 276.89 242 277.77 240.82 278.72H240.86ZM248.51 281.06C245.51 280.69 245.87 279.69 247.87 278.01C248.86 279 250.79 279.47 248.47 281.06H248.51ZM255.74 283.48C255.05 283.632 254.346 283.709 253.64 283.71C253.07 283.56 253.64 283.13 254.64 282.93C255.348 282.783 256.068 282.703 256.79 282.69C257.32 282.72 256.82 283.13 255.7 283.48H255.74ZM255.34 272V271.74L255.94 271.66L255.34 272ZM258.13 266.65C257.844 267.084 257.509 267.484 257.13 267.84L256.85 268.11L256.47 268.41C256.21 268.61 255.94 268.76 255.67 268.93C255.137 269.266 254.586 269.573 254.02 269.85C251.738 270.838 249.333 271.511 246.87 271.85C244.735 272.308 242.679 273.08 240.77 274.14C239.43 274.782 237.995 275.201 236.52 275.38C236.256 274.934 235.962 274.507 235.64 274.1C238.904 272.526 242.327 271.306 245.85 270.46C248.177 269.84 250.47 269.099 252.72 268.24C253.31 268.04 253.9 267.77 254.49 267.52C255.08 267.27 255.69 267.02 256.26 266.71C256.66 266.49 257.1 266.32 257.58 266.04C258.016 265.735 258.43 265.401 258.82 265.04C258.66 265.591 258.428 266.119 258.13 266.61V266.65ZM252.67 262.24C251.67 261.94 250.61 261.75 249.79 261.44C248.97 261.13 248.38 260.84 248.25 260.36C248.06 259.63 250.46 259.16 251.94 258.79C252.038 258.661 252.125 258.523 252.2 258.38C252.163 258.522 252.109 258.66 252.04 258.79C252.23 259.71 252.42 260.63 252.67 262.2V262.24ZM253.28 264.64C253.28 265.34 252.36 265.64 251.52 265.64C250.68 265.64 249.84 265.69 250.03 264.9C250.323 264.648 250.667 264.464 251.038 264.358C251.409 264.253 251.799 264.23 252.18 264.29C252.63 264.27 253.28 264.38 253.28 264.6V264.64ZM261.28 216.86C259.86 216.34 259.28 217.86 259.28 220.86C259.947 221.647 260.577 222.447 261.17 223.26L261.3 223.85L261.06 223.47L259.19 221C257.7 221 256.73 222.3 257.63 225.47C258.46 228.47 257.45 231.02 257.23 233.76C257.034 234.162 256.923 234.601 256.902 235.048C256.881 235.495 256.952 235.941 257.11 236.36C256.29 240.77 257.41 243.03 258.49 245.36C258.842 246.126 259.123 246.923 259.33 247.74C259.443 248.16 259.543 248.6 259.63 249.06C259.67 249.28 259.71 249.51 259.75 249.75C259.758 249.824 259.782 249.896 259.82 249.96L259.9 250.1C260.11 250.406 260.269 250.743 260.37 251.1C260.421 251.291 260.461 251.485 260.49 251.68C260.494 251.872 260.457 252.064 260.38 252.24C260.23 252.61 259.81 252.74 259.12 252.5C258.74 252.091 258.404 251.641 258.12 251.16C257.646 250.649 257.023 250.299 256.34 250.16C255.74 250.02 255.8 250.16 255.79 250.34C255.78 250.52 255.79 250.49 255.65 250.51C255.562 250.536 255.468 250.536 255.38 250.51C255.31 250.51 255.28 250.46 255.17 250.51C255.039 250.544 254.905 250.567 254.77 250.58C253.88 250.64 252.55 251.94 252.77 252.75C253.005 253.475 253.005 254.255 252.77 254.98C252.668 255.3 252.52 255.603 252.33 255.88C252.248 256.009 252.158 256.133 252.06 256.25L251.97 256.37C251.83 256.52 251.65 256.49 251.41 256.37C251.17 256.25 251.13 256.27 251.11 256.11C251.09 255.95 251.11 255.8 250.68 255.86C249.984 255.79 249.281 255.854 248.61 256.05C248.14 256.164 247.711 256.406 247.37 256.75C246.761 257.457 246.194 258.198 245.67 258.97C245.252 259.396 244.811 259.8 244.35 260.18L243.99 260.5L244.24 260.13C244.694 259.753 245.124 259.349 245.53 258.92C245.212 258.404 244.745 257.996 244.19 257.75C243.763 257.58 243.287 257.58 242.86 257.75C242.352 257.925 241.868 258.164 241.42 258.46C240.94 258.76 240.42 259.07 239.88 259.36C239.11 259.79 239 260.93 238.24 261.08C236.04 261.46 237.96 259.74 236.09 259.65C233.51 259.52 230.67 259.09 227.68 259.86C226.86 260.07 225.84 260.39 224.91 260.64C224.247 260.882 223.546 261.001 222.84 260.99C221.112 260.535 219.344 260.25 217.56 260.14C215.869 260.03 214.172 260.03 212.48 260.14C209.1 260.34 205.75 260.81 202.63 261.05C192.39 261.83 181.19 261.5 172.18 264.24C167.36 265.71 163.67 267.86 156.91 267.61C154.69 263.33 148.76 261.52 143.1 263.81C139.25 265.39 135.88 265.44 131.59 265.81C127.06 266.14 119.95 265.53 121.67 269.39C122 270.15 118.85 270.25 117.18 269.5C114.4 268.27 115.18 266.26 110.97 264.93C103.64 266.93 93.2401 265.18 85.7201 267.65C83.9978 268.102 82.1671 267.861 80.6201 266.98C77.2901 264.82 73.2601 265.42 69.4901 265.92C67.4209 266.312 65.3077 266.416 63.2101 266.23C57.9201 265.73 54.8701 265.48 52.3901 265.8C50.0673 266.15 47.8698 267.078 46.0001 268.5C47.2901 269.93 49.5001 270.62 52.1701 270.67L52.8001 270.58L52.3701 270.79C48.9401 271.79 44.9301 270.88 41.3701 269.1C42.9301 268.98 44.4701 268.76 45.9901 268.49C46.3401 266.59 46.4401 265.54 45.6801 264.81C45.1325 264.388 44.5123 264.069 43.8501 263.87C43.4201 263.72 42.9101 263.59 42.3701 263.39C41.8301 263.19 41.1601 263.03 40.5001 262.76C39.6501 262.49 38.9101 262.13 38.0901 261.83C37.2701 261.53 36.5601 261.15 35.8901 260.74C35.2201 260.33 34.5201 259.93 33.7901 259.53C33.0601 259.13 32.4601 258.61 31.8701 258.08C30.4601 256.83 29.5101 258.15 28.6201 258.89C28.4124 257.864 28.4124 256.806 28.6201 255.78C29.7201 253.41 30.4501 252.4 30.3201 251.11C30.1901 249.82 29.3201 248.3 27.7701 244.53L26.6701 241.87L27.4501 239.49L27.5301 238.69L27.3901 239.38C27.0792 239.362 26.7672 239.378 26.4601 239.43C26.2001 232.96 23.9001 227.23 25.0701 219.78C25.8001 215.16 23.1601 210.13 22.0701 205.59C21.4401 203.1 19.3801 206.54 17.9601 207.28C17.6501 207.44 17.4301 207.46 17.3001 207.03C17.7929 205.083 18.4867 203.193 19.3701 201.39C22.5301 194.767 24.5936 187.675 25.4801 180.39C27.0001 166.21 28.0001 151.67 29.7001 137.45C30.8201 127.92 30.7701 118.12 31.8801 108.76C33.2901 97.05 34.5301 85.3 36.0001 73.67C36.7201 67.86 37.4901 62.07 38.4001 56.4C38.8501 53.58 39.3301 50.76 39.8801 48.05L40.3101 46.05L40.4101 45.57C40.4101 45.41 40.4101 45.39 40.4801 45.3L40.6101 44.84C40.7801 44.24 40.9701 43.65 41.1701 43.08C41.4017 42.3695 41.6789 41.6748 42.0001 41C42.1323 40.6501 42.3331 40.33 42.5907 40.0587C42.8483 39.7874 43.1574 39.5703 43.5001 39.42C44.6983 38.9608 45.9781 38.7532 47.2601 38.81H49.2601H54.0601C60.4401 38.81 66.8201 38.81 73.1801 39C86.1801 39.44 99.2301 39.5 112.11 40.13C125.29 40.77 138.62 38.93 151.7 40.25C154.756 40.4657 157.827 40.3213 160.85 39.82C167.69 38.74 174.68 39.22 181.56 38.91C185.36 38.74 188.24 40.45 191.17 40.06C200.49 38.84 209.04 40.33 218.03 40.66C222.23 40.9101 226.44 40.9101 230.64 40.66C234.59 40.31 237.8 39.46 240.39 37.34C241.662 39.1329 243.518 40.427 245.64 41C246.808 41.3455 248.007 41.5766 249.22 41.69C249.94 41.77 250.6 41.81 251.16 41.83C251.43 41.83 251.69 41.83 251.92 41.83H252.24C252.39 41.83 252.3 41.78 252.36 41.77C252.82 41.47 253.25 41.7 253.08 42.47C252.8 42.66 253.37 43.47 253.83 44.17C254.341 44.884 255.008 45.4722 255.78 45.89C255.98 45.97 256.24 46.14 256.34 46.18C256.44 46.22 256.44 46.18 256.49 46.18C256.584 46.1712 256.679 46.1922 256.76 46.24C256.834 46.2951 256.89 46.3713 256.921 46.4588C256.951 46.5462 256.954 46.6407 256.93 46.73C256.916 46.8255 256.893 46.9193 256.86 47.01C256.86 47.06 256.86 47.09 256.81 47.11C256.76 47.13 256.81 47.19 256.81 47.3V47.61C256.967 50.033 257.571 52.4062 258.59 54.61C258.675 55.55 258.577 56.4977 258.3 57.4C257.383 60.8334 256.698 64.3246 256.25 67.85C256.05 69.64 255.9 71.38 255.84 73.85C255.84 75.05 255.84 76.23 255.84 77.51C255.84 78.79 255.94 80.06 256.04 81.39C255.67 82.19 255.67 82.82 256.04 83.02C256.14 83.08 256.29 82.57 256.42 82.33C256.563 82.6481 256.661 82.9847 256.71 83.33C256.52 92.76 254 102 258.16 110C258.85 111.33 258.01 112.54 257.68 113.58C257.48 114.234 257.33 114.903 257.23 115.58C257.12 116.23 257.05 116.9 257 117.58C256.9 119.04 256.9 120.58 256.9 122.19C256.9 125.32 256.84 128.48 255.9 131.19C255.56 132.19 256.7 136.59 257.46 138.89C258.99 143.59 255.39 143.26 256 147.15C257.38 156.15 255.68 165.6 255.78 175.35C255.43 176.07 255.44 176.64 255.78 176.79C255.88 176.79 255.99 176.34 256.1 176.1C257.4 179.46 257.59 183.1 257.69 186.89C257.69 188.65 257.76 190.41 257.79 192.16C257.828 193.759 257.978 195.353 258.24 196.93L258.44 197.51L258.17 197.12C257.405 199.237 257.074 201.486 257.197 203.733C257.321 205.981 257.897 208.18 258.89 210.2C259.79 212.2 260.62 214.44 261.43 216.6L261.58 217.19L261.28 216.86ZM257.62 235.55L257.24 236.14C257.269 235.678 257.353 235.222 257.49 234.78L257.62 235.55ZM210.21 37.13C211.92 36.65 213.71 36.89 217.82 37.13C213.82 37.49 212 37.6 210.21 37.13ZM222.45 36.51H223L222.65 36.81L222.45 36.51ZM247.31 37.51C248.257 37.6374 249.195 37.8211 250.12 38.06C248.74 38.27 248.07 38.48 247.26 38.53C246.759 38.5401 246.267 38.397 245.85 38.12C245.4 37.42 246.5 37.44 247.31 37.5V37.51ZM253.31 38.16L253.48 37.92V38.23L253.31 38.16ZM260.22 153.83L260.36 153.13L260.45 153.85L260.22 153.83ZM261.65 119.7C261.59 120.39 261.03 120.25 261.01 119.44C260.999 118.935 261.033 118.429 261.11 117.93L261.32 116.49L261.74 114.73C262.27 115.92 261.6 116.09 261.42 116.73C261.59 117.707 261.674 118.698 261.67 119.69L261.65 119.7ZM260.92 59.26V58.7L261.21 58.99L260.92 59.26ZM263.19 261.57L263.04 261.41L263.57 261.03L263.19 261.57ZM263.13 255.48C263 255.48 262.86 255.39 262.73 255.33C262.8 255.21 262.84 255.03 262.95 254.97C263.089 254.89 263.252 254.862 263.41 254.89C263.77 255.09 263.64 255.35 263.15 255.47L263.13 255.48ZM264 194.7C263.818 194.165 263.698 193.612 263.64 193.05C263.69 192.59 264.03 192.34 264.24 192C264.387 192.615 264.491 193.24 264.55 193.87C264.59 194.75 264.35 195 264 194.7ZM265.09 64.16C265.057 63.8275 265.057 63.4925 265.09 63.16L265.37 62.56C265.431 62.87 265.468 63.1843 265.48 63.5C265.46 64.54 265.28 64.81 265.09 64.16ZM270.46 275L269.85 275.91L268.97 277.09C268.36 277.9 267.72 278.77 267.16 279.61C266.769 279.311 266.469 278.91 266.293 278.451C266.116 277.992 266.07 277.493 266.16 277.01C266.331 276.44 266.602 275.905 266.96 275.43C267.18 275.13 267.42 274.82 267.71 274.48C268 274.14 268.3 273.8 268.61 273.48C268.92 273.16 270.68 272.33 270.97 272.54C271.62 272.94 271.21 273.82 270.46 275ZM270.19 266.94C268.896 268.506 267.193 269.683 265.27 270.34C266.74 266.94 267.27 265.23 268.27 264.2C269.27 263.17 270.53 262.9 273.41 261.73C272.552 263.582 271.471 265.321 270.19 266.91V266.94ZM267.75 256.27L267.93 255.82L268.12 255.92L267.75 256.27ZM273.75 141.37C272.8 140.9 273.5 138.7 273.11 137.64L272.92 136.99L273.2 137.43L273.75 141.37ZM273.68 70.53C273.93 69.69 274.1 69.91 274.07 71.09C274.036 71.4291 273.969 71.764 273.87 72.09C273.78 71.93 273.63 71.82 273.61 71.61C273.565 71.2405 273.576 70.8665 273.64 70.5L273.68 70.53ZM270.61 170.39L270.43 167.24L271.16 167.66L270.7 170.52C272.246 175.025 273.02 179.758 272.99 184.52C272.99 187.24 272.53 188.82 271.39 188.73C269.98 188.63 269.8 186.48 270.05 183.91C270.46 179.53 269.35 174.46 270.57 170.36L270.61 170.39ZM270.97 136.18C270.861 136.361 270.777 136.556 270.72 136.76V136.68C270.29 133.576 270.418 130.419 271.1 127.36C271 130.3 271 133.26 270.93 136.15L270.97 136.18ZM271.09 158.97C271.04 159.11 270.83 158.97 270.69 158.91C270.599 158.583 270.539 158.248 270.51 157.91C270.51 157.74 270.74 157.38 270.84 157.42C271.22 157.57 271.31 158.17 271.05 158.94L271.09 158.97ZM272.7 130.81L272.85 130.14L272.92 130.87L272.7 130.81ZM273.21 106.04L272.52 105.55L272.92 102.92C272.46 99.22 273.92 92.92 270.41 93.3C269.57 93.4 269.74 91.99 269.7 91.01C269.63 89.39 269.82 87.92 270.53 87.37C271.24 86.82 271.87 87.54 272.28 88.85C273.585 93.4882 273.852 98.3571 273.06 103.11L273.21 106.04ZM269.53 78.88C269.494 78.5477 269.494 78.2123 269.53 77.88C269.583 77.5929 269.663 77.3116 269.77 77.04L269.82 79.04C269.66 79 269.5 79 269.49 78.85L269.53 78.88ZM272.37 199.7C271.84 200.01 271.51 199.11 271.37 197.98C271.2 195.89 271.7 195.6 272.43 195.72C272.86 195.79 273.43 195.29 273.52 196.83C273.584 197.366 273.508 197.909 273.3 198.407C273.091 198.905 272.757 199.34 272.33 199.67L272.37 199.7ZM274.31 256.26C274.245 256.482 274.144 256.691 274.01 256.88C273.873 256.678 273.778 256.45 273.73 256.21C273.65 255.35 273.85 255 274.23 255.35C274.309 255.637 274.322 255.937 274.27 256.23L274.31 256.26ZM274.49 115.54C274.07 115.47 274.01 114.97 274.35 114.29C274.43 114.12 274.59 114.14 274.72 114.07C274.773 114.37 274.8 114.675 274.8 114.98C274.72 115.21 274.56 115.53 274.45 115.51L274.49 115.54ZM274.89 42.59C274.38 42.06 273.89 41.14 273.36 40.59C273.55 40.08 273.48 39.73 273.21 39.76C273.14 39.76 273.21 40.18 273.21 40.4C272.65 40.27 272.1 40.17 271.56 40.08C271.02 39.99 270.43 39.96 269.88 39.93C269.97 40.17 270.07 40.41 270.17 40.65L270.38 41.41C270.53 41.91 270.64 42.41 270.75 42.93C270.86 43.45 271 43.93 271.15 44.35C271.314 44.8361 271.518 45.3078 271.76 45.76C273.076 47.955 273.826 50.4432 273.94 53C274.03 55.4433 273.235 57.8369 271.7 59.74C271.694 60.7628 271.754 61.785 271.88 62.8L272.09 63.43L271.82 62.94C271.1 63.43 270.82 64.82 270.48 66.23C270.17 60.73 269.92 58.09 269.94 55.68C269.96 53.27 270.33 51.11 270.55 46.98C270.598 46.1878 270.53 45.3929 270.35 44.62C270.253 44.0915 270.03 43.5942 269.7 43.17C269.473 42.8252 269.12 42.5822 268.717 42.4926C268.314 42.4031 267.892 42.4738 267.54 42.69C267.01 42.97 266.62 43.69 266.16 44.23C265.39 45.09 265.01 44.18 264.59 43.73C264.253 43.3261 264.004 42.856 263.86 42.35C263.66 41.44 264.15 41.14 265.03 41.43C265.457 41.5967 265.912 41.6816 266.37 41.68C266.715 41.6513 267.036 41.4942 267.27 41.24C267.771 40.5625 268.06 39.7517 268.1 38.91L267.64 38.53C267.195 38.1865 266.78 37.8051 266.4 37.39C266.219 37.1728 266.056 36.9421 265.91 36.7C265.72 36.4062 265.56 36.0947 265.43 35.77C265.103 34.7209 264.653 33.7139 264.09 32.77C263.36 32.47 262.65 32.12 261.96 31.77L260 30.82C258.786 30.1808 257.505 29.6777 256.18 29.32C254.679 28.9173 253.141 28.666 251.59 28.57C249.957 28.4311 248.312 28.5118 246.7 28.81C246.49 28.81 246.54 29.11 246.48 29.26L246.99 29.55L246.34 29.32C243.48 29.05 242.22 27.14 237.8 28.07C233.17 29.07 232.03 26.94 230.5 25.57C228.05 27.38 225.19 29.17 219.5 28.4C218.35 28.24 217.25 28.1 216.22 27.99C215.19 27.88 214.17 27.81 213.22 27.77C211.383 27.6869 209.542 27.7706 207.72 28.02C204.629 28.3339 201.716 29.6187 199.4 31.69C198.4 31.03 197.68 30.69 197.81 30.57C200.44 27.05 200.43 27.09 192 25.9C190.41 25.68 188.22 25.98 187 25.04L206.17 25H215.7C218.85 25 222.12 25 225.3 24.87C227.105 24.7266 228.92 24.9095 230.66 25.41C234.452 24.8116 238.282 24.4775 242.12 24.41C245.656 24.3244 249.126 25.3759 252.02 27.41C252.621 27.6077 253.248 27.7123 253.88 27.72C255.2 26 257.19 26 259.14 27C260.124 27.5066 261.024 28.1609 261.81 28.94L263 30C263.41 30.38 263.81 30.75 264.23 31.08C265.955 32.5996 267.914 33.832 270.03 34.73L271.84 35.42C272.303 35.5949 272.746 35.8195 273.16 36.09C273.627 36.3598 274.051 36.6967 274.42 37.09C275.64 38.19 276.52 40.9 276.13 42.2C275.76 43.26 275.31 43.09 274.85 42.56L274.89 42.59ZM275.75 152.81C275.57 149.81 275.82 147.52 277.12 146.01C277.56 149.34 276.87 151.17 275.71 152.78L275.75 152.81ZM277.16 165.58L277.05 166.25L276.95 165.56L277.16 165.58ZM276.51 196.27C277.12 190.65 275.51 184.21 277.61 179.22C275.81 185.31 279.86 190.12 278.98 195.95L279.18 196.65L278.9 196.16L276.51 196.27ZM279.45 264.87L279 265.72L279.22 265.03C279.333 264.77 279.433 264.51 279.52 264.25C279.46 264.43 279.44 264.63 279.41 264.84L279.45 264.87ZM283.67 250.35C283.58 250.64 283.37 251.01 283.26 250.98C282.86 250.9 282.87 250.32 283.26 249.57C283.36 249.38 283.55 249.46 283.7 249.42C283.707 249.722 283.683 250.023 283.63 250.32L283.67 250.35ZM284.42 147.08L284.26 147.75L284.19 147.02L284.42 147.08ZM284.65 201.15C284.4 200.87 284.06 200.75 283.92 200.28C283.71 199.59 283.92 198.91 284.28 198.94C284.64 198.97 284.83 199.31 285.1 199.51L284.65 201.15Z" fill="#EFDB2C"/>
<path d="M221.32 26.46C220.913 26.6444 220.54 26.8982 220.22 27.21C220.835 27.3608 221.466 27.438 222.1 27.44C222.58 27.35 222.77 26.96 223.1 26.7C222.855 26.4978 222.559 26.3681 222.244 26.3257C221.93 26.2833 221.609 26.3298 221.32 26.46Z" fill="#EFDB2C"/>
<path d="M65.89 277.62C64.05 276.73 62.46 277.56 60.73 277.62C60.665 277.93 60.665 278.25 60.73 278.56L65.27 278.89C65.5 278.48 66.31 277.82 65.89 277.62Z" fill="#EFDB2C"/>
</svg>
