<svg width="300" height="300" viewBox="0 0 300 300" fill="none" xmlns="http://www.w3.org/2000/svg">
<path d="M295.86 134.57C295.379 123.236 295.546 111.885 296.36 100.57C296.893 92.2472 296.973 83.9015 296.6 75.57C296.45 71.28 296.13 66.88 295.77 62.45C295.53 60.2 295.35 57.99 295.08 55.7C294.81 53.41 294.48 50.87 293.97 48.15C292.962 42.3554 290.941 36.7836 288 31.69C287.56 30.98 287.12 30.24 286.65 29.58L285.21 27.58C284.241 26.3295 283.203 25.1343 282.1 24C281.01 22.85 279.83 21.82 278.66 20.77C277.49 19.72 276.25 18.79 275 18C270.354 14.8757 265.259 12.4781 259.89 10.89C255.125 9.45661 250.221 8.53474 245.26 8.14001C242.87 7.94001 240.51 7.83001 238.17 7.84001H235.11H232.38L221.46 8.00001L199.46 8.24001C179.46 8.51001 159.22 7.43001 138.95 7.64001C123.71 7.80001 108.37 7.33001 92.95 7.53001C88.3167 7.57668 83.6667 7.68668 79 7.86001L72.17 8.09001L65.17 8.28001C59.7569 8.3729 54.3556 8.81717 49 9.61001C46.0476 10.0829 43.1257 10.7307 40.25 11.55C37.3581 12.3932 34.5224 13.4186 31.76 14.62C31.24 14.84 30.7 15.06 30.19 15.3L28.49 16.14C27.73 16.51 26.97 16.9 26.3 17.31C25.98 17.57 25.62 17.76 25.3 17.98L24.3 18.69C23.65 19.17 23.05 19.69 22.44 20.23L21.61 21L21 21.59C20.25 22.35 19.54 23.1 18.88 23.86L15.88 27.3L14.38 29.07L13.51 30.07L12.39 31.42C10.905 33.199 9.58619 35.1103 8.45004 37.13C8.16926 37.6331 7.92206 38.1543 7.71004 38.69C7.44004 39.19 7.46004 39.82 7.11004 40.3C6.87671 41.4333 6.65338 42.57 6.44004 43.71C6.24004 44.85 6.06004 46 5.90004 47.14L5.62004 49.37C5.45004 50.75 5.28004 52.12 5.14004 53.5C4.84004 56.25 4.60004 59.01 4.46004 61.78C3.84004 73.54 2.68004 85.57 3.40004 97.44C3.73004 102.74 4.12004 108.04 4.62004 113.33L5.32004 120.82C5.51004 123.24 5.68004 125.67 5.80004 128.09C6.30004 137.75 6.10004 147.59 6.03004 157.8C5.96004 166.75 5.97004 175.8 6.17004 184.9L6.25004 188.37L6.39004 191.89C6.50338 194.203 6.63004 196.49 6.77004 198.75C7.07004 203.197 7.36338 207.647 7.65004 212.1C8.04004 218.24 8.26004 224.32 8.13004 230.04L8.05004 232.18L8.00004 234.51L7.81004 239.26C7.70004 242.47 7.64004 245.74 7.72004 249.09C7.78004 252.09 7.96004 255.2 8.33004 258.43C8.42004 259.24 8.52004 260.05 8.67004 260.9C8.82004 261.75 8.91004 262.55 9.12004 263.44C9.33004 264.33 9.45004 265.15 9.73004 266.09L10.16 267.62C10.31 268.15 10.5 268.62 10.69 269.14C11.0457 270.143 11.4666 271.122 11.95 272.07C12.19 272.54 12.43 273.01 12.69 273.48L13.58 274.79C14.177 275.68 14.846 276.519 15.58 277.3L16.65 278.47L17.58 279.41C19.8927 281.729 22.3727 283.875 25 285.83C25.37 286.09 25.71 286.34 26.11 286.61C26.51 286.88 26.99 287.19 27.43 287.45C28.3174 288.002 29.2393 288.496 30.19 288.93C32.0557 289.765 34.0027 290.405 36 290.84C37.6775 291.216 39.373 291.506 41.08 291.71C42.62 291.9 44.14 292.04 45.7 292.17C51.7181 292.579 57.7545 292.646 63.78 292.37C66.69 292.28 69.51 292.13 72.24 291.95C74.97 291.77 77.71 291.63 80.71 291.56L89.5 291.33C95.36 291.19 101.227 291.093 107.1 291.04C118.84 290.95 130.61 291.04 142.43 291.46C145.652 291.691 148.884 291.728 152.11 291.57C169.85 290 187.88 291.45 205.82 290.3C212.11 289.89 218.4 289.59 224.67 289.36L234.1 289.09L238.69 289L243.39 289.06C250.01 289.204 256.63 288.789 263.18 287.82C264.35 287.63 265.51 287.41 266.68 287.16C266.449 287.248 266.231 287.366 266.03 287.51C265.8 287.97 266.21 288.18 266.97 288.2C267.416 288.209 267.862 288.172 268.3 288.09C268.77 287.98 269.3 287.83 269.77 287.68C270.409 287.44 271.023 287.135 271.6 286.77C272.026 286.508 272.399 286.169 272.7 285.77C272.763 285.67 272.813 285.562 272.85 285.45L273.29 285.32C274.13 285.03 274.97 284.7 275.82 284.32L277.25 283.69C277.71 283.48 278.17 283.23 278.63 283C280.452 282.073 282.172 280.957 283.76 279.67C284.933 278.75 286.018 277.722 287 276.6C287.95 275.418 288.653 274.058 289.07 272.6C289.939 269.708 290.469 266.725 290.65 263.71C290.81 261.6 290.89 259.53 290.93 257.48C291.53 254.87 292.05 252.28 292.51 249.7C293.494 244.204 294.181 238.66 294.57 233.09C295.3 222.39 296.62 212.09 296.62 201.53C296.62 190.97 296.29 180.32 296.62 170.03C297 158.19 296.43 146.27 295.86 134.57ZM7.21004 91.54C6.64873 90.9572 6.29696 90.2045 6.21004 89.4C6.06004 88.22 6.51004 87.5 7.30004 87.65C7.68606 88.3231 7.96601 89.0516 8.13004 89.81C8.30004 91 7.75004 91.88 7.21004 91.54ZM10 75.78L10.22 75.19V75.92L10 75.78ZM12.66 227.16L12.54 226.53H12.8L12.66 227.16ZM13.66 92.57C13.5616 92.4924 13.4798 92.3957 13.4197 92.2858C13.3595 92.1758 13.3222 92.0548 13.31 91.93C13.41 90.79 13.79 90.21 14.37 90.19C14.55 90.62 14.92 91.19 14.87 91.49C14.72 92.67 14.19 92.79 13.67 92.57H13.66ZM15.78 272C15.6016 271.738 15.5105 271.427 15.52 271.11C15.64 271.02 15.91 271.23 16.12 271.31C16.32 271.65 16.76 272.1 16.77 272.25C16.87 272.91 16.49 272.84 15.78 272ZM271.19 121.15C270.74 116.85 269.3 112.55 271.47 106.22C271.34 112.52 272.14 116.8 271.19 121.15ZM271.35 156.98C271.35 157.43 271.35 157.88 271.35 158.34C271.193 158.167 271.074 157.962 271 157.74C271 157.08 271.09 156.81 271.35 157V156.98ZM271.92 173.57C272.92 177.45 273.34 180.07 272.1 182.28C271.96 182.53 271.31 182.28 271.17 181.85C270.18 179.05 270.94 176.82 271.92 173.57ZM271.75 213.32C270.996 212.031 270.667 210.537 270.81 209.05C270.9 208.32 271.41 208.12 271.64 208.73C272.184 210.206 272.223 211.82 271.75 213.32ZM271.28 145.05C271.28 146.117 271.26 147.187 271.22 148.26C269.88 146.44 268.28 147.35 266.55 147.85C266.89 143.08 268.34 142.97 269.72 144.04C270.16 144.39 270.77 144.62 271.28 145.05ZM270.14 193.51C270.457 194.029 270.602 194.635 270.555 195.242C270.509 195.849 270.272 196.425 269.88 196.89C269.315 197.576 268.674 198.197 267.97 198.74L267.65 199.1L267.87 198.56C267.962 197.202 268.126 195.85 268.36 194.51C268.68 193.1 269.47 192.56 270.14 193.51ZM268.85 222.71C268.75 222.84 268.56 222.71 268.41 222.71C268.314 222.45 268.257 222.177 268.24 221.9C268.4 221.2 268.67 221.21 268.92 221.9C268.979 222.171 268.955 222.453 268.85 222.71ZM269.49 251.52C268.49 247.74 268.14 243.92 266.35 242.36L266.22 241.81L266.47 242.17C268.74 243 270.11 245.43 269.49 251.52ZM270.62 268.7C270.73 268.89 270.85 269.08 270.99 269.28L270.35 268.94L270.62 268.7ZM289.92 200.32C290.32 200.32 290.46 201.01 290.22 201.78C290.039 202.283 289.825 202.774 289.58 203.25C289.429 202.716 289.345 202.165 289.33 201.61C289.4 201.09 289.69 200.35 289.92 200.32ZM286.83 91.49L287.41 93.25C286.58 93.64 287.07 92.03 286.77 91.6L286.53 90.98L286.83 91.49ZM279.63 129.08C279.74 128.96 280 129.08 280.1 129.26C280.248 129.506 280.32 129.789 280.307 130.076C280.295 130.362 280.198 130.638 280.03 130.87C279.93 130.99 279.71 130.76 279.55 130.7C279.402 130.452 279.33 130.166 279.344 129.878C279.359 129.59 279.458 129.312 279.63 129.08ZM269.27 77.93L269.84 79.69C269.03 80.06 269.48 78.52 269.18 78.1L268.94 77.57L269.27 77.93ZM271.64 92.6C271.769 93.1829 271.769 93.7871 271.64 94.37C270.38 96.86 268.93 95.78 267.22 95.89C268.61 92.39 270.05 91.87 271.64 92.6ZM268.64 86.07L268.76 86.7H268.51L268.64 86.07ZM263.42 44.89C263.579 44.4681 263.879 44.1145 264.27 43.89C264.563 43.687 264.913 43.582 265.27 43.59C265.49 43.6266 265.693 43.7311 265.851 43.8889C266.009 44.0467 266.113 44.2499 266.15 44.47C266.48 45.66 265.59 46.24 265.1 46.8C264.962 46.8638 264.813 46.8989 264.661 46.9031C264.509 46.9073 264.357 46.8805 264.216 46.8244C264.075 46.7683 263.947 46.6839 263.839 46.5766C263.731 46.4693 263.647 46.3411 263.59 46.2C263.379 45.7966 263.332 45.3271 263.46 44.89H263.42ZM246 35.75C246.28 35.41 247.43 35.34 248.24 35.26C249.05 35.18 249.31 35.47 249.24 36.36C248.64 36.5174 248.028 36.6211 247.41 36.67C246.44 36.73 245.48 36.36 246 35.75ZM222.67 35.63C223.514 35.3202 224.38 35.0729 225.26 34.89C226.04 34.72 226.51 34.89 226.53 35.31C226.072 35.6654 225.548 35.9269 224.989 36.0797C224.429 36.2324 223.845 36.2733 223.27 36.2C222.3 36.16 222 35.88 222.65 35.63H222.67ZM193.72 34C194.098 33.7548 194.532 33.6096 194.982 33.5781C195.431 33.5466 195.881 33.6299 196.29 33.82C197.12 34.16 197.48 34.63 197.13 35.18C196.751 35.4219 196.316 35.5611 195.867 35.5839C195.418 35.6067 194.971 35.5123 194.57 35.31C193.78 35 193 34.56 193.72 34ZM176.64 32.73C176.47 30.96 178.79 30.03 180.84 28.64C183 32.62 183 32.62 176.64 32.75V32.73ZM176.47 23.27C176.711 23.1149 176.993 23.0349 177.28 23.04C178.11 23.04 178.48 23.32 178.22 23.73C178.15 23.85 177.69 23.9 177.41 23.98C176.58 24 176.21 23.7 176.47 23.29V23.27ZM132.82 30.27C133.61 30.13 134.15 30.39 133.82 30.73C133.446 31.0669 132.979 31.283 132.48 31.35C131.71 31.48 131.3 31.25 131.41 30.85C131.854 30.601 132.328 30.4094 132.82 30.28V30.27ZM122.71 31.5C123.51 31.1203 124.332 30.7864 125.17 30.5L125.7 30.24L125.32 30.57C124.934 31.1 124.499 31.5922 124.02 32.04C123.584 32.3732 123.072 32.5931 122.53 32.68C121 32.28 122.1 31.83 122.71 31.5ZM114.4 30.11L114.97 29.93L114.59 30.21L113.98 30.38L114.4 30.11ZM91.61 29.39C92.01 29.39 92.61 29.76 93.22 30.01C92.22 30.5 91.32 31.01 90.3 31.46C89.72 31.72 89.23 31.51 89.3 31C89.3501 30.2 90.05 29.57 91.61 29.39ZM80.73 12.71L85.06 12.85L85.63 12.56L85.11 12.88C84.4011 13.2551 83.6094 13.4461 82.8074 13.4357C82.0054 13.4252 81.2189 13.2135 80.52 12.82L80.18 12.52L80.73 12.71ZM84.91 25.46C84.6175 25.5208 84.3185 25.5443 84.02 25.53C83.78 25.48 83.48 25.28 83.5 25.16C83.6 24.68 84.09 24.62 84.73 25.03C84.9 25.13 84.86 25.31 84.91 25.46ZM75.73 29.28C76.4742 29.5695 77.1849 29.9383 77.85 30.38C80.1 30.81 82.44 31.19 83.25 32.61C78.93 33.49 79.82 30.94 77.57 30.55C76.6904 30.3505 75.8303 30.0727 75 29.72C74.45 29.39 75 29 75.73 29.28ZM67.73 20.94C67.83 20.94 67.66 21.21 67.61 21.35C67.3354 21.4537 67.0505 21.5275 66.76 21.57C66.65 21.57 66.32 21.33 66.36 21.23C66.57 20.79 67.1 20.68 67.77 20.94H67.73ZM64.73 30.21C64.9998 30.1058 65.2823 30.0385 65.57 30.01C65.72 30.01 66.03 30.25 65.99 30.35C65.84 30.8 65.31 30.91 64.64 30.64C64.56 30.59 64.72 30.36 64.76 30.21H64.73ZM58.73 33.49L59.26 33.25L58.88 33.56L58.33 33.81L58.73 33.49ZM49 20.92C49.52 20.53 50.52 20.53 50.7 20.92C51.1 21.78 50.19 22.55 48.83 23.32C47.74 22.65 47.81 21.81 49 20.92ZM37.25 26.15V26.42L36.65 26.49L37.25 26.15ZM33.35 35.82C33.3895 36.2157 33.3895 36.6143 33.35 37.01C33.01 37.49 32.64 37.6 32.44 37.17C32.353 36.9979 32.3077 36.8078 32.3077 36.615C32.3077 36.4222 32.353 36.2321 32.44 36.06C32.74 35.48 33.25 35.36 33.35 35.82ZM31.17 30.25C31.3532 29.9725 31.5643 29.7145 31.8 29.48L32.31 29.66C32.19 29.89 32.14 30.2 31.96 30.35C31.2 31 30.87 31 31.17 30.25ZM25.79 69.66C25.89 69.88 26.08 70.1 26.07 70.33C26.01 71.26 25.75 71.46 25.43 70.8C25.3483 70.5105 25.3079 70.2109 25.31 69.91L25.79 69.66ZM24.56 171.17C24.5085 170.901 24.5363 170.623 24.64 170.37C24.75 170.23 24.94 170.37 25.1 170.37C25.2037 170.646 25.2644 170.936 25.28 171.23C25.13 171.93 24.83 171.93 24.56 171.17ZM26 145C26.69 146.89 27.09 148 27.49 149.11C27.96 150.42 28.09 151.96 27.22 152.67C25.86 153.78 25.8 151.67 25.76 149.88C25.69 148.61 25.84 147.29 26 145ZM25.92 124.6C25.9267 124.278 25.9772 123.958 26.07 123.65C26.18 123.79 26.36 123.89 26.4 124.09C26.4653 124.42 26.4653 124.76 26.4 125.09C26.16 125.94 25.94 125.74 25.87 124.63L25.92 124.6ZM26.56 131.76L26.86 132.16L27.4 134C26.64 134.38 27.04 132.76 26.71 132.39L26.56 131.76ZM27.63 198.76L27.5 199.36L27.38 198.71L27.63 198.76ZM26 164.15V163.69L26.31 163.94L26 164.15ZM27.86 222.52C28.61 225.01 27 227.14 27.61 229.52L27.77 230.28L27.53 229.66C25.69 227 25.76 224.71 27.81 222.52H27.86ZM27.99 257.72L27.65 257.49L27.99 257.32V257.72ZM27.46 238.33H27.7L27.54 238.94L27.46 238.33ZM28.46 265.78C28.0718 265.392 27.7657 264.929 27.56 264.42C27.49 264.23 27.87 263.91 28.05 263.67L28.49 264.35C28.63 264.58 28.84 264.77 28.97 265C29.19 265.4 29.08 265.67 28.45 265.78H28.46ZM29 120.27C29 119.21 29.14 118.93 29.43 119.57C29.4955 119.899 29.5157 120.236 29.49 120.57L29.23 121.19C29.1263 120.891 29.0494 120.583 29 120.27ZM43.72 277.14L43.17 277.33L43.58 277.03L44.23 276.93L43.72 277.14ZM48.15 273.32L47.63 273.45L47.98 273.2L48.48 273.06L48.15 273.32ZM68 276C66.2 274.91 66.08 273.91 68.59 272.66C69.93 273.86 69.3 274.85 68 276ZM77.7 271L78.12 272.08C78.37 272.71 77.78 273.31 76.59 273.17C75.4 273.03 75.76 272.28 76.18 271.8C76.6032 271.452 77.0665 271.157 77.56 270.92L79.26 270.34C79.7401 271.06 78.12 270.6 77.72 270.92L77.7 271ZM84.7 274.45L85.05 274.17L85.16 274.52L84.7 274.45ZM112.62 275.45C111.42 275.59 110.82 275.12 111.02 274.45C111.85 273.79 112.15 272.77 114.02 272.58C115.27 272.44 115.67 273.09 115.61 273.58C115.54 274.49 114.46 275.17 112.69 275.36L112.62 275.45ZM144.27 274.89C141.27 275.03 138.61 276.27 134.07 275.79C137.67 273.63 140.92 273.86 144.45 274.79L144.87 275.12L144.27 274.89ZM162.17 275.52C161.635 275.615 161.085 275.56 160.58 275.36C160.07 274.79 160.82 274.42 161.72 274.13C162.46 274.03 162.97 274.21 162.9 274.64C162.855 274.812 162.772 274.972 162.658 275.109C162.544 275.245 162.401 275.355 162.24 275.43L162.17 275.52ZM173.12 275.66L173.01 275.31L173.47 275.37L173.12 275.66ZM183.73 274.6L184.1 274.3L184.24 274.66L183.73 274.6ZM220 284.91C219.739 284.858 219.487 284.771 219.25 284.65L220.15 284.44C220.456 284.433 220.762 284.463 221.06 284.53C221.39 284.84 221 285 220 284.91ZM220.08 276.08C219.816 276.033 219.56 275.949 219.32 275.83L220.23 275.64C220.54 275.64 221.04 275.64 221.13 275.73C221.46 276 221 276.17 220.12 276.08H220.08ZM236.68 274.08C236.37 274.39 236.036 274.674 235.68 274.93C235.43 274.72 234.94 274.51 235 274.33C235.06 274.15 235.55 273.79 235.86 273.52C236.73 273.49 237 273.68 236.72 274.09L236.68 274.08ZM250 274L250.34 273.69L250.5 274.03L250 274ZM262.81 283C262 282.84 260.93 282.69 261.3 281.92C261.813 281.817 262.338 281.783 262.86 281.82C263.465 282.096 264.041 282.431 264.58 282.82C264.001 282.963 263.406 283.023 262.81 283ZM264.93 273.33L264.46 273.64L264.74 273.31C264.769 272.966 264.703 272.62 264.55 272.31C260.95 272.9 263.34 269.65 260.55 269.7L260.15 270.03L260.41 269.64C260.34 268.59 259.59 267.82 257.86 268.24C255.49 268.78 254.67 269.96 255.34 271.39L255.71 271.66L255.17 271.52C251.68 271.02 249.47 269.08 244.87 269.33C243.96 269.33 243.02 269.4 242.07 269.41H238.99H235.59H232.59C228.59 269.41 224.59 269.27 220.59 269.12C216.59 268.97 213.59 269.23 211.51 270.01C209.516 270.749 207.871 272.208 206.9 274.1C206.551 274.672 206.042 275.13 205.436 275.416C204.83 275.702 204.154 275.804 203.49 275.71C200.7 275.43 202.06 274.42 203.05 273.65C204.04 272.88 204.72 272.01 204.47 271.07C204.28 270.34 203.38 269.19 202.21 269.62C196.69 271.62 191.53 268.42 186.07 269.62C182.74 270.36 178.81 269.22 175.13 270.8C173.69 271.43 168.79 269.88 165.46 269.35C164.781 269.24 164.089 269.24 163.41 269.35C154.31 271.14 144.11 267.23 135.21 270.42C134.541 270.537 133.852 270.482 133.21 270.26C126.74 267.35 125.62 269.93 124.47 272.4C123.99 273.46 122.32 273.74 120.74 274.12L120.14 274.28L120.53 274C122.03 272.14 123.89 269.25 119.24 268.93C113.87 268.56 108.24 267.11 102.59 268.24L84.77 268.58C82.6275 267.99 80.4287 267.628 78.21 267.5C75.822 267.387 73.4288 267.451 71.05 267.69C66.3801 268.13 62.05 269.02 58.18 269.28C55.62 269.45 52.88 269.55 50.27 269.82C48.96 269.97 47.67 270.15 46.44 270.41C45.82 270.54 45.21 270.7 44.6 270.88C44.0327 271.054 43.4808 271.275 42.95 271.54C41.95 272.77 40.11 273.29 38.36 273.81C38.501 273.338 38.763 272.91 39.12 272.57C39.4018 272.303 39.7454 272.111 40.12 272.01C41.0095 271.869 41.8858 271.655 42.74 271.37C43.03 269.32 43.12 268.28 42.69 267.72C42.4409 267.443 42.1067 267.256 41.74 267.19C41.4124 267.114 41.0759 267.084 40.74 267.1H40.28C40.0355 267.098 39.7951 267.037 39.58 266.92C38.85 266.6 37.94 266.14 37.05 265.69C35.7559 265.078 34.5264 264.338 33.38 263.48C33.1019 263.339 32.8618 263.133 32.68 262.88C32.616 262.755 32.5753 262.62 32.56 262.48C32.5161 262.337 32.5161 262.183 32.56 262.04C32.6718 261.771 32.7031 261.476 32.65 261.19C32.6176 261.097 32.5775 261.007 32.53 260.92C32.4446 260.831 32.3676 260.734 32.3 260.63L32.13 260.39L31.97 260.09L31.64 259.5C31.4058 259.059 31.2437 258.583 31.16 258.09L30.87 257.67L31.24 257.94C31.9051 257.699 32.4756 257.252 32.8679 256.664C33.2602 256.075 33.4537 255.376 33.42 254.67C33.4382 253.851 33.3948 253.032 33.29 252.22C33.19 251.35 33.06 250.44 32.96 249.56C32.7011 247.175 32.5709 244.779 32.57 242.38C32.57 239.91 32.57 237.38 32.74 234.79L32.95 230.59C32.95 229.17 33.04 227.74 33.09 226.31C33.17 223.55 33.2434 220.767 33.31 217.96C33.45 211.42 33.13 204.96 32.79 198.74C32.61 195.61 32.43 192.52 32.31 189.54C32.19 186.56 32.16 183.45 32.14 180.35C31.9607 179.51 31.6212 178.712 31.14 178C30.68 179.06 29.49 179.94 29.46 179.5C29.33 177.2 30.62 178.85 31.07 177.8C31.41 176.98 32.07 176.08 32.07 175.35C31.69 167.98 34.07 160.2 31.55 153C31.3167 152.642 31.1867 152.227 31.1743 151.8C31.162 151.373 31.2678 150.951 31.48 150.58C33.53 146.7 32.48 143.99 30.69 141.22C29.69 139.61 29.75 138.71 31.57 137.81C32.83 137.19 32.99 136.24 32.86 134.11C32.64 130.03 32.35 125.94 32.08 121.85C31.96 119.85 31.8334 117.81 31.7 115.73C31.58 113.61 31.53 111.9 31.5 110C31.5 105.28 29.5 101.32 29.32 96.45C29.27 94.5 27.84 93.66 26.62 93.94L24.57 96.18C24.51 97.43 24.5 98.68 24.47 99.93C25.26 101.34 26.09 102.74 27.1 104.42C24.82 103.9 24.78 103.9 24.38 100.06C23.9414 99.4628 23.7048 98.7411 23.7048 98C23.7048 97.259 23.9414 96.5373 24.38 95.94C24.5505 95.4355 24.8322 94.9759 25.2044 94.595C25.5766 94.2142 26.0296 93.922 26.53 93.74C26.76 88.42 29.43 93.12 30.35 90.42C29.82 86.91 28.08 86.06 26.65 85.09C24.35 83.51 27.96 78.99 25.65 77.84C25.23 77.63 24.41 77.84 24.73 76.41C24.84 75.91 25.73 75.7 26.19 75.74C27.9 75.85 27.77 81.24 30.38 80.04C30.38 75.78 31.19 71.12 31.28 66.91C31.37 62.7 30.73 58.91 27.63 56.28C27.63 56.28 27.97 55.13 28.16 54.51L28.78 55.14L28.68 53.77C29.31 52.66 30.18 52.83 31.02 52.59C31.5146 52.4596 31.9405 52.1447 32.21 51.71C32.39 51.49 32.58 50.95 32.69 50.93C32.813 50.7872 32.905 50.6203 32.96 50.44C32.4929 50.3313 32.0519 50.1313 31.6624 49.8515C31.2728 49.5718 30.9424 49.2179 30.69 48.81C30.16 48.03 29.9 47.17 28.79 46.67C28.39 46.49 27.65 46.78 27.09 46.95C26.79 47.01 26.58 47.05 26.4 46.89C26.22 46.73 26.13 46.39 26.27 45.78C26.3576 45.4389 26.5471 45.1326 26.8134 44.9021C27.0796 44.6716 27.4099 44.5278 27.76 44.49C28.418 44.4242 29.0603 44.2484 29.66 43.97C29.66 43.8 29.76 43.61 29.81 43.42C29.81 43.59 29.76 43.78 29.76 43.94C30.4611 44.7156 31.1093 45.5375 31.7 46.4C32.3656 47.2488 33.1912 47.9589 34.13 48.49C34.308 48.2444 34.5017 48.0105 34.71 47.79L35.6 46.79C36.48 45.79 37.38 44.79 38.12 43.79C38.4977 43.2998 38.8322 42.7778 39.12 42.23C39.4154 41.776 39.5622 41.2412 39.54 40.7C39.47 39.96 40.07 40.15 40.65 40.48C40.96 40.63 41.17 40.86 41.39 40.89C41.9029 40.7952 42.3625 40.5137 42.68 40.1C44.45 37.92 47.46 37.02 49.91 35.61C49.91 35.17 49.14 34.79 48.75 34.43C48.36 34.07 48.31 33.59 49.89 33C50.6533 32.7284 51.4868 32.7284 52.25 33C53.33 34.33 51.58 34.92 50.01 35.61C50.36 36.82 51.01 37.51 53.23 37.25C55.97 36.91 58.96 36.91 62.02 36.61C65.1477 36.4065 68.1957 35.5371 70.96 34.06C71.74 33.61 74.82 32.2 75.96 33.92C78.41 37.63 84.4 36.49 88.32 36.13C97.99 35.13 107.81 37.73 117.32 35.91C126.11 39.02 135.91 36.6 145.22 37.74C162.39 39.84 180.1 38.74 197.66 40.24C204.04 40.77 211.89 41.37 218.66 39.75C221.058 39.2693 223.53 39.2897 225.92 39.81C229.713 40.4002 233.542 40.7343 237.38 40.81C240.349 40.8779 243.316 40.5755 246.21 39.91C247.21 39.64 248.46 39.43 248.98 40.37C249.295 41.0433 249.768 41.6302 250.36 42.08C250.845 42.4853 251.401 42.7972 252 43C252.57 43.24 253.23 43.36 253.81 43.56C254.1 43.65 254.43 43.73 254.71 43.84C254.99 43.95 255.26 44.07 255.53 44.2C257.035 44.903 258.457 45.7717 259.77 46.79C260.04 47.05 260.28 47.34 260.55 47.61C260.766 47.8834 260.954 48.1783 261.11 48.49C261.496 49.3035 261.704 50.1899 261.72 51.09C261.79 53.49 263.23 54.78 265.34 53.61C268.08 52.05 267.39 55.26 267.23 57.61L267.57 58.09L267.19 57.74C262.98 58.34 262.56 58.85 263.5 64.3C264.57 71.5553 265.022 78.8883 264.85 86.22C264.79 93.7 264.35 101.3 264.05 109C263.82 115.21 264.35 120.19 266.27 125C264.98 125.65 263.81 126.74 263.46 129.54C263.16 131.86 263.62 134.37 264.73 135.38C264.895 135.557 265.093 135.7 265.313 135.8C265.534 135.9 265.772 135.955 266.013 135.962C266.255 135.97 266.496 135.929 266.722 135.843C266.948 135.757 267.155 135.627 267.33 135.46C268.33 134.26 267.33 132.23 267.08 130.53C266.92 129.09 266.93 127.59 266.87 126.12C268.15 130.47 269.54 134.97 271.16 139.61C270.282 139.683 269.399 139.683 268.52 139.61C265.23 139.05 264.27 140.07 264.52 145.45C264.77 150.83 265.52 155.86 265.23 161.19C265.12 163.49 266.38 166.19 267.9 165.19C269.61 164.06 269.23 166.78 269.44 167.91C269.93 170.62 268.84 170.91 267.93 170.45C265.2 169.16 264.93 171.91 265.04 176.11C265.35 185.57 265.75 195.02 264.52 204.25C263.71 210.25 263.18 216.38 264.28 222.47C264.513 223.414 264.533 224.397 264.34 225.35C261.39 231.35 263.34 237.7 262.82 243.71C262.521 244.056 262.331 244.483 262.276 244.938C262.221 245.392 262.302 245.852 262.51 246.26C262.33 248.94 262.89 250.32 264.51 250.21C266.41 247.97 266.28 250.7 266.51 252.49L266.6 253.15L266.4 252.62L264.57 250.47C264.413 253.129 264.618 255.797 265.18 258.4C265.737 260.86 265.798 263.406 265.36 265.89C265.06 267.11 266.24 266.58 267.02 266.46C267.46 266.39 267.66 266.46 267.59 266.91C267.536 267.16 267.459 267.404 267.36 267.64C267.119 267.595 266.871 267.595 266.63 267.64C265.93 267.84 265.53 268.57 264.98 269.92L264.49 271.16C264.35 271.5 264.67 271.86 264.78 272.21C264.991 272.408 265.179 272.629 265.34 272.87C265.3 273 265.05 273.15 264.93 273.3V273.33ZM266.64 78.39L266.35 78.27L266.53 77.69L266.64 78.39ZM263.38 244.91L263.14 245.2V244.62L263.38 244.91ZM274.48 268.33V267.95C274.211 267.698 273.924 267.468 273.62 267.26L273.2 267.21H273.62C273.904 267.314 274.181 267.434 274.45 267.57C274.55 267.64 274.55 267.84 274.59 267.99L274.48 268.33ZM274.42 262.61C274.504 262.524 274.575 262.427 274.63 262.32C274.638 262.448 274.654 262.575 274.68 262.7L274.42 262.61Z" fill="#212121"/>
<path d="M258.52 260.1C258.15 261.39 258.72 261.77 259.46 262.03C259.93 261.89 260.61 261.9 260.53 260.8C260.494 260.183 260.235 259.6 259.8 259.16C259.36 258.83 258.75 259.27 258.52 260.1Z" fill="#212121"/>
</svg>
