<svg width="300" height="300" viewBox="0 0 300 300" fill="none" xmlns="http://www.w3.org/2000/svg">
<g clip-path="url(#clip0_130_435)">
<path d="M293.94 212.1C293.77 207.81 293.63 203.53 293.37 199.24C293.26 197.1 293.1 194.96 292.96 192.82L292.47 186.58C291.84 178.65 291.63 170.81 291.55 162.79C291.46 154.42 292.02 145.79 292.5 137.12C292.76 132.78 292.98 128.41 293.18 124.05L293.41 117.48C293.41 115.18 293.48 112.92 293.41 110.7C293.29 101.7 293.1 93.07 293.29 84.7C293.38 80.52 293.56 76.45 293.93 72.65C294.34 68.36 294.77 63.88 295.03 59.2C295.2 55.81 295.28 52.32 295.14 48.59C295.14 47.68 295.05 46.72 294.97 45.74L294.86 44.29L294.68 42.77L294.48 41.23L294.21 39.61C294.03 38.51 293.8 37.53 293.4 35.97C293 34.41 292.55 33.32 292.08 31.97C291.84 31.32 291.52 30.71 291.23 30.08C290.943 29.4491 290.609 28.8407 290.23 28.26C289.546 27.0891 288.801 25.9542 288 24.86C287.57 24.31 287.12 23.78 286.67 23.26C286.22 22.74 285.67 22.2 285.41 21.86C284.01 20.37 282.65 19.02 281.19 17.68C279.652 16.2617 278.04 14.9264 276.36 13.68C273.935 11.8494 271.262 10.3745 268.42 9.30002C265.923 8.36852 263.345 7.6689 260.72 7.21002C258.47 6.80002 256.72 6.57002 254.63 6.31002C252.54 6.05002 250.63 5.92002 248.63 5.82002C244.63 5.62002 240.77 5.65002 237.16 5.82002C233.55 5.99002 230.16 6.17002 226.97 6.32002C225.79 6.36669 224.62 6.39669 223.46 6.41002C222.29 6.41002 221.22 6.41002 219.86 6.41002C217.27 6.35002 214.66 6.25002 212.06 6.14002L196.43 5.36002C191.28 5.00002 186.29 7.12002 182 6.40002C170.8 4.51002 159.44 5.55002 148.39 5.80002C138.39 6.02002 128.23 6.86002 118.32 6.89002C105.73 6.89002 93.2599 7.68002 80.8199 8.56002L62.0999 9.89002L52.7499 10.48L48.0799 10.73L45.0799 10.86C43.7499 10.92 42.4199 11 41.0799 11.12C38.5077 11.3585 35.9673 11.8646 33.4999 12.63C31.108 13.409 28.8286 14.4983 26.7199 15.87C26.4599 16.05 26.2199 16.25 25.9599 16.43L25.5799 16.72L25.3899 16.86C25.3899 17 25.2899 16.99 25.2499 17.06C24.7567 17.4568 24.2859 17.8808 23.8399 18.33C22.9596 19.245 22.1786 20.2506 21.5099 21.33C20.1548 23.4969 19.0605 25.8163 18.2499 28.24C17.4328 30.7144 16.7649 33.2356 16.2499 35.79C15.9099 37.25 15.8499 37.88 15.6699 38.79L15.2499 41.35C14.2499 48.1 13.5699 54.55 12.7299 60.99C12.1102 64.6539 11.8057 68.3641 11.8199 72.08C12.2899 81.36 11.9599 90.57 11.5399 99.76C11.1918 100.305 10.7559 100.788 10.2499 101.19C8.52995 102.53 5.29995 106.32 5.72995 109.47C6.60995 115.79 4.31995 120.72 4.25995 126.47C4.17995 134.47 3.56995 142.47 3.25995 150.31C2.91995 158.71 2.76995 167.05 2.62995 175.47C2.48995 183.89 2.41995 192.6 2.30995 201.17C2.26344 215.096 3.09845 229.01 4.80995 242.83L5.45995 248.09C5.69995 249.91 5.98995 251.84 6.35995 253.9C7.15622 258.571 8.53706 263.124 10.4699 267.45C11.6276 269.98 13.0559 272.378 14.7299 274.6C15.5587 275.737 16.4606 276.82 17.4299 277.84L18.8799 279.36C19.3699 279.86 19.8799 280.28 20.4099 280.74C24.2856 284.087 28.7017 286.752 33.4699 288.62C37.5206 290.212 41.7173 291.404 45.9999 292.18C49.9999 292.94 53.7899 293.39 57.4299 293.72C61.0699 294.05 64.3099 294.24 67.6999 294.51L77.6999 295.23C92.7599 296.3 107.92 296.09 123.05 296.57C128.89 296.75 134.88 296.18 140.85 296.16C150.71 296.1 160.63 296.97 170.41 295.68C172.97 295.193 175.574 294.969 178.18 295.01C186.58 295.73 194.96 295.33 203.32 294.86C207.5 294.6 211.69 294.35 215.87 294.17C217.96 294.09 220.05 294.02 222.15 294.01C223.23 294.01 224.15 294.01 225.15 294.01C226.15 294.01 227.15 294.08 228.15 294.13C231.44 294.323 234.738 294.339 238.03 294.18C241.764 294.019 245.485 293.625 249.17 293C253.184 292.305 257.139 291.302 261 290C262.94 289.32 264.88 288.62 266.76 287.85C267.23 287.66 267.76 287.48 268.17 287.27L269.8 286.57C270.46 286.27 271.11 285.97 271.71 285.67C272.31 285.37 272.9 285.01 273.47 284.67C274.042 284.315 274.587 283.917 275.1 283.48C275.37 283.26 275.63 283.04 275.89 282.8L276.28 282.44L276.57 282.16C277.229 281.492 277.832 280.769 278.37 280C279.57 278.24 280.81 276.62 282.13 275L283.13 273.78L284.49 272.17C284.97 271.6 285.44 271.02 285.9 270.44C286.36 269.86 286.83 269.28 287.25 268.67C287.693 268.079 288.104 267.465 288.48 266.83C288.872 266.202 289.226 265.551 289.54 264.88L289.71 264.36L289.8 264.09L289.85 263.96V263.9C289.85 263.9 290.02 263.96 289.94 263.9V263.85L290.21 262.77L290.73 260.61L291.21 258.41L291.6 256.36L292.15 253.55C292.407 253.225 292.556 252.828 292.578 252.414C292.599 252 292.492 251.59 292.27 251.24C292.188 251.71 292.054 252.17 291.87 252.61L291.76 251.78L292.27 251.23C292.52 238.24 294.37 225.15 293.94 212.1ZM286.39 112.38C286.39 113.24 286.08 113.45 285.65 113.03C285.418 112.676 285.271 112.274 285.221 111.854C285.171 111.434 285.218 111.008 285.36 110.61C285.54 110.03 285.66 108.61 286.26 109.73C286.463 110.598 286.508 111.496 286.39 112.38ZM285.16 104.19C285.05 103.98 284.83 103.77 284.82 103.55C284.77 102.63 285.02 102.42 285.44 103.02C285.554 103.292 285.631 103.578 285.67 103.87L285.16 104.19ZM285.56 90.12C285.01 90.48 284.48 90.12 284.56 88.95C284.601 88.7474 284.696 88.5596 284.835 88.4065C284.974 88.2534 285.152 88.1406 285.35 88.08C285.61 88.08 285.9 88.56 286.18 88.83C286 89.28 285.84 89.94 285.56 90.12ZM285.31 81.67L285.5 81.1L285.62 81.73L285.31 81.67ZM285.84 50.81C285.9 51.6022 285.9 52.3978 285.84 53.19C285.84 54.51 285.6 55.93 284.54 55.79C283.83 53.52 284.21 51.45 284.54 49.21C284.899 49.3034 285.219 49.5089 285.452 49.7968C285.686 50.0846 285.822 50.4396 285.84 50.81ZM284.36 61.75L284.15 62.26V61.63L284.36 61.75ZM273.36 38.75L273.13 38.86C273.115 38.7139 273.085 38.5697 273.04 38.43C273.165 38.5164 273.279 38.6171 273.38 38.73L273.36 38.75ZM273.76 52.59C273.541 52.9385 273.22 53.2109 272.84 53.37C270.73 53.85 270.18 51.6 269.36 49.37C270.07 49.05 270.49 48.62 270.71 48.79C271.87 49.75 273.31 50.31 273.78 52.57L273.76 52.59ZM275.58 190.74L275.26 190.26C274 184.02 271.12 178.67 271.03 171.65C275.9 175.91 275.96 182.65 275.3 190.19L275.58 190.74ZM269.27 67.35C271.27 66.47 271.88 68.79 272.7 70.64L272.89 71.24L272.6 70.78C271.148 70.0276 269.979 68.8239 269.27 67.35ZM269.57 107.91L269.23 108.13V107.68L269.57 107.91ZM271.63 58.55C271.76 58.36 271.88 57.99 272 57.99C272.53 57.99 272.65 58.43 272.27 59.09C272.17 59.28 271.94 59.29 271.76 59.38L271.63 58.55ZM272.63 88.67C273.056 89.6759 273.261 90.7615 273.232 91.8535C273.202 92.9454 272.939 94.0184 272.46 95C271 94.56 271.54 92.56 271.46 91.24C271.38 89.92 271.42 88.48 272.6 88.67H272.63ZM270.53 134.78C270.559 134.258 270.721 133.752 271 133.31C271.36 132.96 271.61 133.42 271.46 134.16C271.325 134.69 271.158 135.211 270.96 135.72C270.58 135.92 270.39 135.59 270.5 134.78H270.53ZM272.89 195.54C272.61 196.73 272.05 196.6 271.52 196.1C271.281 195.7 271.105 195.264 271 194.81L272.51 193.9L272.89 195.54ZM272.99 153.72C274.2 155.88 274.31 158.43 273.53 163.03C273.206 162.079 272.981 161.097 272.86 160.1C273.28 157.75 271.58 156.44 272.02 154.23C272.05 153.89 272.85 153.51 273 153.72H272.99ZM272.99 137.79C273.05 137.68 273.31 137.84 273.47 137.87C273.58 138.138 273.651 138.421 273.68 138.71C273.68 138.86 273.4 139.15 273.28 139.11C272.77 139 272.66 138.44 273 137.79H272.99ZM274.04 167.79L274.29 167.86L274.12 168.44L274.04 167.79ZM274.69 120.54C272.08 118.04 271.69 115.45 271.89 112.59C272.09 109.73 272.77 106.67 272.35 103.71C273.336 104.794 274.093 106.065 274.576 107.449C275.058 108.832 275.257 110.298 275.16 111.76C275.15 114.68 274.58 117.52 274.69 120.57V120.54ZM269.56 39.82C269.546 39.6637 269.546 39.5064 269.56 39.35C269.77 39.58 269.93 39.85 270.13 40.09C270.01 40.09 269.84 40.23 269.79 40.2C269.679 40.11 269.598 39.9877 269.56 39.85V39.82ZM254.73 12.32C252.692 13.2154 250.389 13.3012 248.29 12.56C250.49 10.87 252.76 12.56 254.73 12.32ZM250.24 17.32C251.939 16.7679 253.727 16.544 255.51 16.66C257.369 16.7754 259.21 17.0939 261 17.61C263.011 18.1827 264.964 18.9462 266.83 19.89C268.7 20.81 270.52 22.05 272.12 22.89C270.41 22.25 268.47 21.39 266.6 20.89C264.76 20.3455 262.89 19.9081 261 19.58C259.18 19.27 257.42 19 255.69 18.64C253.96 18.28 252.17 17.86 250.37 17.39C248.927 17.9148 247.393 18.142 245.86 18.0578C244.327 17.9736 242.827 17.5797 241.45 16.9C244.93 15.47 247.38 17.68 250.24 17.32ZM268.57 164.32C268.243 163.465 267.999 162.581 267.84 161.68L267.67 161.07L267.94 161.53C268.394 162.199 268.779 162.913 269.09 163.66C269.31 164.35 268.9 164.9 268.57 164.3V164.32ZM268.7 179.08C268.679 179.378 268.629 179.672 268.55 179.96C268.44 179.82 268.28 179.72 268.25 179.54C268.185 179.23 268.185 178.91 268.25 178.6C268.44 177.86 268.64 178.05 268.7 179.06V179.08ZM268.48 147.33C268.639 147.558 268.719 147.832 268.71 148.11C268.71 148.29 268.51 148.48 268.39 148.66C268.24 148.52 267.99 148.43 267.95 148.21C267.8 147.38 268 147 268.48 147.31V147.33ZM268.82 91.33C268.498 91.119 268.143 90.9636 267.77 90.87C266.32 90.78 265.69 89.16 266.12 87.12C266.75 84.12 267.86 87.18 268.76 87.12L269.07 86.63L268.82 87.21L268.89 91.21L269.19 91.72L268.82 91.33ZM265.82 81.33L265.7 80.69H265.95L265.82 81.33ZM265.4 35.63C264.983 35.6313 264.567 35.5877 264.16 35.5C263.57 35.31 263.29 34.85 263.62 34.61C264.01 34.4616 264.44 34.4616 264.83 34.61C265.48 34.78 265.67 35.18 265.44 35.57L265.4 35.63ZM258.46 30.75C258.832 30.7518 259.2 30.83 259.54 30.98C259.877 31.1689 260.147 31.4593 260.31 31.81C259.694 32.1958 258.954 32.3351 258.24 32.2C257.397 31.9385 256.629 31.479 256 30.86C255.49 30.68 255 30.49 254.42 30.31C255.48 29.7 255.53 30.64 256.02 30.85C256.9 30.88 257.72 30.68 258.5 30.69L258.46 30.75ZM257.56 27.44C257.56 27.32 257.93 27.28 258.15 27.2L258.74 27.49C258.62 27.62 258.56 27.81 258.38 27.87C257.77 28.06 257.43 27.89 257.6 27.38L257.56 27.44ZM242.95 27.44L242.63 27.78L242.45 27.4L242.95 27.44ZM224.84 12.12C224.9 12.02 225.34 12.02 225.61 11.98L226.37 12.17C226.2 12.2957 226.011 12.3936 225.81 12.46C225 12.6 224.62 12.44 224.84 12.12ZM226.37 16.49C229.45 16.49 232.56 16.3 235.9 16.13C233.126 16.9542 230.29 17.5528 227.42 17.92C224.374 18.2782 221.304 18.3852 218.24 18.24C222.36 16.54 222.25 16.53 226.37 16.49ZM231.37 29.05H230.79L231.16 28.7L231.37 29.05ZM210.73 11.88L211.32 12.02L210.71 12.15L210.73 11.88ZM211.8 32.88C211.526 32.9581 211.244 33.0084 210.96 33.03C210.05 33.03 209.82 32.8 210.39 32.57C210.68 32.5047 210.98 32.5047 211.27 32.57C211.463 32.6595 211.642 32.7775 211.8 32.92V32.88ZM205.88 13.4L206.05 13.81L205.48 13.74L205.88 13.4ZM210.88 17.11L202 16.72C205.86 15.64 208.33 16.54 210.84 17.11H210.88ZM199.88 25.74C200.412 25.5703 200.973 25.5058 201.53 25.55C202.53 25.64 202.53 25.89 201.58 26.12C201.051 26.2983 200.498 26.3994 199.94 26.42C199.25 26.36 199.19 26 199.89 25.74H199.88ZM198.88 31.18C199.04 30.67 199.69 30.18 200.12 29.75C201.76 28.75 204.12 28.93 206.12 28.6L206.65 28.39L206.29 28.7C204.52 29.57 202.35 29.65 200.19 29.77C200.56 30.06 200.91 30.37 201.3 30.65C202.03 31.19 203.3 31.65 202.4 32.47C201.877 32.7183 201.296 32.8186 200.72 32.76C199.12 32.66 198.64 32 198.9 31.18H198.88ZM196.63 16.28L197.24 16.43L196.61 16.55L196.63 16.28ZM191.02 12.28C191.893 12.1426 192.777 12.0924 193.66 12.13C194.21 12.21 194.01 12.86 193.35 12.85C192.538 12.7669 191.739 12.5856 190.97 12.31L190.52 12.01L191.02 12.28ZM187.7 16.42C187.9 16.5 187.92 16.73 188.03 16.89L187.27 17.06C187.05 16.94 186.67 16.84 186.64 16.71C186.56 16.24 187 16.12 187.72 16.42H187.7ZM181.03 16.84L181.48 17.14L180.87 16.93L180.52 16.58L181.03 16.84ZM179.03 12.1L179.6 11.91L179.2 12.2L178.65 12.44L179.03 12.1ZM182.51 26.1C184.347 25.1943 186.469 25.0541 188.41 25.71L182.66 26.23C180.66 28.4 177.44 27.34 174.6 27.31L174.04 27.55L174.48 27.24C176.81 25.79 179.88 26.39 182.57 26.06L182.51 26.1ZM173.22 11.59L174.3 12.15L173.84 12.53C173.48 12.33 173.1 12.14 172.76 11.92C172.924 11.7836 173.097 11.66 173.28 11.55L173.22 11.59ZM174.44 15.71C170.27 18.48 166.81 17.41 163.57 17.16L174.44 15.71ZM162.11 25.79C162.18 25.57 163.03 25.3 163.54 25.27C164.027 25.3375 164.499 25.4827 164.94 25.7C164.55 25.97 164.25 26.37 163.77 26.47C162.83 26.67 161.9 26.52 162.11 25.79ZM157.47 17.18L157.36 17.45L156.82 17.26L157.47 17.18ZM157.62 25.89C152.93 27.21 148.07 26.55 143.23 26.37C148 24 152.79 26.12 157.62 25.89ZM156.19 30.44C155.366 30.7465 154.52 30.9905 153.66 31.17C152.87 31.3 152.44 30.87 153.02 30.57C153.818 30.1951 154.673 29.9584 155.55 29.87C156.46 29.76 156.73 30.05 156.19 30.44ZM143.42 30.07L142.82 30.19V29.94L143.42 30.07ZM148.94 17.26L149.59 17.17L149.47 17.45L148.94 17.26ZM143.42 13.26C144.594 12.4427 145.99 12.0046 147.42 12.0046C148.85 12.0046 150.246 12.4427 151.42 13.26C152.165 13.0006 152.936 12.8261 153.72 12.74C154.36 12.74 154.53 13.34 154 13.42C153.158 13.4666 152.314 13.4298 151.48 13.31C148.79 14.85 146.2 12.97 143.54 13.31L142.92 13.56L143.42 13.26ZM143.35 16.67L143.87 16.42L143.52 16.77C142.482 17.1865 141.386 17.4363 140.27 17.51C140.37 16.26 142.39 17.15 143.35 16.7V16.67ZM136.76 13.22L136.43 13.53L136.31 13.16L136.76 13.22ZM135 30L135.6 30.14L134.99 30.29L135 30ZM129.8 17.28L129.69 17.55L129.17 17.37L129.8 17.28ZM125.85 13.85L125.79 14.13L125.2 13.96L125.85 13.85ZM121.53 29.15C121.62 29.15 121.46 29.43 121.42 29.58C121.177 29.6931 120.922 29.777 120.66 29.83C120.56 29.83 120.26 29.59 120.29 29.48C120.43 29 120.9 28.87 121.52 29.12L121.53 29.15ZM120.14 14C120.36 14 120.55 14.21 120.75 14.32C120.65 14.48 120.61 14.71 120.43 14.76C120.172 14.7876 119.911 14.7389 119.68 14.62C119 14.2 119.21 14 120.14 14ZM110.14 16C110.675 15.8753 111.221 15.8049 111.77 15.79C111.38 15.14 109.66 14.92 110.14 14.05C110.711 13.9057 111.309 13.9057 111.88 14.05C113.56 14.6 112.77 15.25 111.78 15.85C111.38 16.113 110.941 16.3121 110.48 16.44C109.7 16.48 109.5 16.2 110.11 16H110.14ZM113.34 28L111.48 28.62L110.93 28.85L111.3 28.51L113.34 28ZM101 15.64C101.214 15.4588 101.48 15.352 101.76 15.3357C102.04 15.3195 102.317 15.3947 102.55 15.55C102.71 15.65 102.64 15.88 102.68 16.06C102.459 16.2305 102.19 16.3287 101.911 16.3412C101.632 16.3538 101.356 16.28 101.12 16.13C101 16 100.88 15.74 101 15.64ZM90.7899 15.53C91.6145 15.2802 92.4885 15.2409 93.3322 15.4155C94.1758 15.5902 94.9624 15.9734 95.6199 16.53C93.7746 17.0314 91.8242 16.9933 89.9999 16.42C90.0618 16.2245 90.164 16.0442 90.3002 15.8909C90.4363 15.7375 90.6032 15.6146 90.7899 15.53ZM85.9999 28L85.8899 28.25L85.3799 28.08L85.9999 28ZM84.2499 15.31V15.56L83.6699 15.44L84.2499 15.31ZM72.1099 16.44C72.7188 16.471 73.3241 16.5512 73.9199 16.68C73.4312 16.8299 72.9287 16.9304 72.4199 16.98C71.8451 16.9511 71.2734 16.8775 70.7099 16.76C71.1635 16.6024 71.633 16.4951 72.1099 16.44ZM68.2899 24.44C68.7789 24.5454 69.2458 24.7349 69.6699 25C68.1799 25.18 65.8699 25.43 65.7599 24.62C65.6099 23.56 67.3899 24.41 68.2899 24.43V24.44ZM49.3799 23.7C49.9199 23.7 50.7899 23.94 50.9099 24.19C51.2699 24.91 50.3299 25.19 49.2799 25.25C48.7499 25.09 47.8599 24.98 47.7399 24.74C47.3999 24 48.3399 23.7 49.3799 23.7ZM38.8699 27.85C39.1191 27.8578 39.3655 27.9051 39.5999 27.99C39.3999 28.11 39.1999 28.25 38.9999 28.38C38.7999 28.51 38.3599 28.56 38.2399 28.48C37.8399 28.25 38.0799 28 38.8699 27.85ZM28.9999 40.93L29.1699 41.51L28.9999 41L28.8399 40.4L28.9999 40.93ZM28.3099 46.57L28.5399 46.72L28.2699 47.19L28.3099 46.57ZM24.9399 76.67C24.984 76.9682 24.96 77.2724 24.8699 77.56C24.7899 77.75 24.6745 77.923 24.5299 78.07C24.4671 77.7909 24.4336 77.5061 24.4299 77.22C24.5099 76.3 24.7399 76.08 24.9399 76.67ZM24.1399 93C24.2699 93.14 24.4899 93.24 24.5199 93.44C24.6499 94.22 24.4499 94.54 24.0499 94.22C23.9026 94.0022 23.829 93.7428 23.8399 93.48C23.8299 93.29 23.9999 93.11 24.1399 93ZM25.0899 250.42C23.6799 248.56 21.9399 247.06 21.4999 243.49C24.0799 243.94 24.4999 247.18 25.2399 250.22C25.4567 250.456 25.5974 250.753 25.6438 251.07C25.6901 251.387 25.64 251.711 25.4999 252L25.2699 252.46L25.3999 251.88C25.4438 251.357 25.3362 250.833 25.0899 250.37V250.42ZM17.3099 194.87C17.1978 195.742 17.0071 196.602 16.7399 197.44C16.6699 195.13 16.6299 193.71 16.5799 192.28C17.6499 192.36 17.2799 193.83 17.3099 194.82V194.87ZM22.6299 139.87C21.9499 139.87 21.1399 140.87 20.6299 139.49C20.5599 139.32 20.4899 139.13 20.4199 138.94C20.4199 137.7 20.3599 136.45 20.3399 135.2C21.0299 134.39 21.5199 135.2 21.8899 136.2C21.9996 137.12 22.2212 138.024 22.5499 138.89C22.5499 139.2 22.6199 139.51 22.6699 139.81L22.7699 140C22.7733 140.037 22.7733 140.073 22.7699 140.11L22.6299 139.87ZM20.6299 126.21C20.7299 126.73 20.7699 127.27 20.8399 127.81L21.0999 128.34L20.7599 127.95L20.3599 125.95C20.4599 125.91 20.6199 126 20.6399 126.11L20.6299 126.21ZM20.9099 114.32C20.9099 113.96 20.9699 113.6 21.0099 113.23C21.0599 113.66 21.0799 114.07 21.1099 114.49L20.9099 114.32ZM20.0899 179V177.33C20.1999 177.33 20.3899 177.39 20.3999 177.48C20.445 177.765 20.445 178.055 20.3999 178.34C20.3252 178.572 20.221 178.794 20.0899 179ZM20.8099 164.22C21.2797 166.365 21.2489 168.589 20.7199 170.72C20.0499 169 19.3299 167.26 20.8099 164.26V164.22ZM20.9999 151.65L20.6499 151.93L20.9199 151.49C20.5299 147.24 22.9199 145.17 23.6399 141.78C23.6446 141.717 23.6446 141.653 23.6399 141.59L23.6999 141.69C24.202 142.586 24.4298 143.609 24.3551 144.633C24.2804 145.657 23.9066 146.637 23.2799 147.45C22.4276 148.798 21.6659 150.201 20.9999 151.65ZM23.6199 167.65L24.2599 169.14C23.4199 169.67 23.8899 168.02 23.4999 167.82C22.844 166.098 22.6948 164.224 23.0699 162.42C24.2299 163.81 23.4999 165.9 23.6599 167.64L23.6199 167.65ZM23.5699 155.42L23.8499 155.54L23.6399 156.07L23.5699 155.42ZM23.6199 179.02L23.6799 179.65L23.4299 179.58L23.6199 179.02ZM23.6199 232.24C23.7299 232.15 23.9899 232.3 24.0899 232.48C24.4999 233.18 24.3999 233.62 23.8499 233.57C23.7199 233.57 23.5899 233.2 23.4599 233.01C23.5299 232.73 23.5399 232.33 23.6399 232.23L23.6199 232.24ZM22.7499 189.83C22.8282 189.63 22.9435 189.447 23.0899 189.29C23.1706 189.577 23.2176 189.872 23.2299 190.17C23.2299 191.17 22.9599 191.35 22.6999 190.75C22.6497 190.439 22.6736 190.12 22.7699 189.82L22.7499 189.83ZM6.92994 184.41C6.92994 184.3 7.14995 184.3 7.26995 184.25C7.32679 184.536 7.35028 184.828 7.33995 185.12C7.20995 186.12 7.01995 186.21 6.86995 185.31C6.84009 185.009 6.86036 184.705 6.92994 184.41ZM7.67994 226.56C7.32781 225.675 7.07948 224.752 6.93995 223.81C6.82995 220.81 6.93995 217.81 6.93995 214.55C8.09995 218.55 9.07995 222.22 7.77995 226.42L8.38995 228.06C7.51995 228.48 7.99995 227 7.67994 226.56ZM7.59995 195.74L7.84995 195.86L7.63995 196.39L7.59995 195.74ZM7.33995 174.21C8.33995 157.64 8.97995 141.21 9.70995 124.46C9.8775 123.233 10.1724 122.026 10.5899 120.86C10.7065 120.284 10.7435 119.696 10.6999 119.11C10.1695 118.054 9.96746 116.862 10.1199 115.69C11.2499 116.22 10.4599 117.94 10.7499 118.98C10.7499 120.22 10.6699 121.46 10.6299 122.7C10.2899 129.25 9.22995 135.81 9.96995 142.23L9.75995 148.82C9.60488 149.161 9.51338 149.527 9.48994 149.9C9.08994 159.6 7.33994 169.2 9.06994 179.24C7.37994 178.17 7.22995 176.21 7.33995 174.21ZM16.9999 228.68C16.8899 228.83 16.6999 228.82 16.5499 228.88C16.4786 228.609 16.4483 228.33 16.4599 228.05C16.5099 227.82 16.6999 227.53 16.8299 227.55C17.3299 227.62 17.3999 228.07 16.9999 228.68ZM17.2399 210.83C19.1399 209.71 21.1499 213.91 22.8599 209.73C22.6999 213.3 22.8599 216.38 21.1099 219.98C19.2199 217.33 17.6399 215.15 17.2299 210.83H17.2399ZM19.3299 274.1L18.8799 273.27L19.5599 273.94L19.3299 274.1ZM19.9999 230.2L20.1199 230.89L19.7999 230.79L19.9999 230.2ZM25.7499 280.2L25.1299 279.57L25.9299 280.01L25.7499 280.2ZM27.1799 269.1C26.8311 268.843 26.4972 268.565 26.1799 268.27C25.8699 267.96 25.5599 267.65 25.2599 267.32C24.9599 266.99 24.6399 266.67 24.3499 266.32L23.5399 265.22C22.5221 263.71 21.6705 262.094 20.9999 260.4C20.2999 258.75 19.4399 256.66 20.5799 255.98C21.7199 255.3 23.0999 256.2 23.8899 258.14C25.0018 260.978 26.599 263.6 28.6099 265.89C30.6951 268.212 33.2031 270.116 35.9999 271.5C34.4453 271.788 32.8459 271.726 31.3183 271.318C29.7908 270.909 28.3736 270.165 27.1699 269.14L27.1799 269.1ZM27.6899 167.46C28.1283 169.47 28.0282 171.561 27.3999 173.52C27.3999 173.64 26.6799 173.47 26.5599 173.14C25.8399 171.23 26.4699 169.67 27.6799 167.5L27.6899 167.46ZM26.5099 144L27.0899 145.85C27.4963 146.544 27.8313 147.278 28.0899 148.04C28.2899 148.75 27.8699 149.22 27.5599 148.61C27.289 147.76 27.1015 146.886 26.9999 146L26.5099 144ZM29.5099 140.39L28.9999 138.68C29.8399 138.41 29.3199 139.82 29.6199 140.21L29.8299 140.74L29.5099 140.39ZM29.8099 200.3V201L29.5499 200.61L29.8099 200.3ZM31.5599 259.54C31.5599 258.95 31.8299 259.01 32.2199 259.6C32.3199 259.77 32.2799 260.04 32.3299 260.24C32.1784 260.223 32.0281 260.196 31.8799 260.16C31.7999 259.93 31.5999 259.71 31.5899 259.52L31.5599 259.54ZM37.2299 286.41L37.4499 286.23L38.0199 286.63L37.2299 286.41ZM41.6799 274.6C41.3904 274.541 41.113 274.433 40.8599 274.28C40.7699 274.22 40.8599 274.04 40.8599 273.92C41.1391 273.955 41.4139 274.019 41.6799 274.11C42.5799 274.51 42.5899 274.71 41.7099 274.58L41.6799 274.6ZM46.3899 270.55L46.7599 270.28L46.8099 270.69L46.3899 270.55ZM49.2499 279L49.3599 278.76L49.8999 279.02L49.2499 279ZM54.9299 288.79L54.8499 288.41L55.3199 288.53L54.9299 288.79ZM62.1199 290V289.74L62.7099 289.92L62.1199 290ZM69.6399 278.33C67.3299 281.6 66.4299 281.7 60.3099 278.86C63.1499 277.38 66.5999 278.44 69.5999 278.3L70.16 278.04L69.6399 278.33ZM84.41 280.26C83.41 280.6 81.95 281.2 81.2199 280.26C80.2199 279.08 82.0999 278.74 83.5999 278.54C84.9074 278.279 86.2647 278.469 87.4499 279.08C86.3999 279.5 85.4399 279.91 84.41 280.26ZM90.41 276.05C90.1738 275.971 89.9512 275.857 89.7499 275.71L90.5999 275.57C90.8799 275.62 91.3499 275.64 91.4199 275.74C91.6399 276.07 91.2399 276.21 90.3999 276.05H90.41ZM99.66 276.49L99.0999 276.28L99.7399 276.21L99.66 276.49ZM105.08 281.87L103.47 282.42C103.17 281.58 104.59 282.1 104.95 281.78L105.56 281.58L105.08 281.87ZM103.33 273.05L104 273L103.93 273.25L103.33 273.05ZM106.79 291.72C106.01 291.87 105.69 291.72 106.02 291.27C106.12 291.14 106.49 291.1 106.74 291.02C106.91 291.12 107.22 291.23 107.2 291.32C107.175 291.42 107.123 291.51 107.048 291.581C106.974 291.652 106.881 291.7 106.78 291.72H106.79ZM111.28 277.5C112.28 277.14 113.28 276.6 114.15 277.5C114.39 277.77 113.57 278.36 113.24 278.8L111 281C108 279.68 106.13 278.42 111.27 277.5H111.28ZM116.46 292.5C115.789 292.463 115.121 292.383 114.46 292.26C114.878 292.094 115.314 291.979 115.76 291.92C116.374 291.954 116.985 292.027 117.59 292.14C117.234 292.33 116.849 292.458 116.45 292.52L116.46 292.5ZM120.9 280.12C119.62 280.03 118.31 280.12 117.02 280.18L115.14 281.24C113.69 281.83 112.29 282.05 111.05 281L114.99 281.15L116.84 280.06C118.91 278.99 123.47 279.61 123.13 276.9C122.24 276.34 121.79 275.02 122.03 275.03C124.31 275.1 122.66 276.25 123.28 276.84C125 278.6 127.44 280.53 120.89 280.14L120.9 280.12ZM128.21 292.19C127.131 292.706 125.927 292.904 124.74 292.76C125.23 291.55 127.08 292.49 128.08 292.09L129.67 291.51C130.11 292.43 128.55 291.89 128.2 292.21L128.21 292.19ZM131.57 273.88L129.42 274.21L131.42 273.72L132.89 273.1C133.42 274 131.75 273.51 131.56 273.9L131.57 273.88ZM136.09 292.48L135.41 292.66L135.97 292.39C139.6 291.03 143.45 291.8 147.28 292.24L136.09 292.48ZM138.36 278.86L138.84 278.53L139.39 278.32L138.97 278.61L138.36 278.86ZM150.72 278.91C147.4 279.75 145.72 282.68 140.19 281.49C142.73 278.95 144.89 276.68 150.68 278.89L151.22 278.59L150.72 278.91ZM155.27 291.48C155.158 291.654 155.012 291.802 154.84 291.916C154.668 292.029 154.473 292.106 154.27 292.14C153.56 292.14 153.42 291.78 153.89 291.38L154.98 290.6C155.06 290.92 155.39 291.24 155.26 291.5L155.27 291.48ZM157.39 282.76L157.24 282.39H157.7L157.39 282.76ZM162.56 292.09C162.22 292.04 162.05 291.57 161.8 291.29L164.15 290.92L165.73 291.36C164.798 291.992 163.666 292.259 162.55 292.11L162.56 292.09ZM164.74 281.84C164.59 282.15 163.44 282.03 163.45 281.67C163.46 281.31 164.07 280.74 164.45 280.27L165.05 280.03L164.52 280.32C164.58 280.85 164.94 281.4 164.73 281.86L164.74 281.84ZM174.96 291.74C174.01 291.74 173.78 291.5 174.37 291.23C174.678 291.185 174.992 291.185 175.3 291.23L175.82 291.55C175.556 291.654 175.281 291.724 175 291.76L174.96 291.74ZM173.87 281.74C174.27 281.6 174.7 281.49 175.12 281.38L175.35 281.8L174.08 282.13C174 282 173.82 281.75 173.86 281.74H173.87ZM182.28 279.36C182.26 279.554 182.22 279.745 182.16 279.93C181.86 280.61 182.16 281.93 180.65 281.7C178.15 281.34 180.12 280.17 180.27 279.34C180.073 279.103 179.908 278.841 179.78 278.56C179.78 278.45 180.07 278.31 180.23 278.18C181.18 277.79 182.23 277.18 183.14 278.02C183.39 278.27 182.59 278.91 182.27 279.36H182.28ZM185.39 291.77C184.963 291.69 184.549 291.552 184.16 291.36C184.823 291.268 185.491 291.217 186.16 291.21C186.53 291.294 186.884 291.436 187.21 291.63C186.604 291.716 185.992 291.763 185.38 291.77H185.39ZM184.16 273.17L184.28 272.87L184.81 273.07L184.16 273.17ZM198.09 291.52C197.201 291.482 196.321 291.331 195.47 291.07L193.74 290.58C194.86 289.92 195.04 290.76 195.63 290.95C196.17 290.76 196.75 290.59 197.25 290.36C198.15 289.94 199.13 288.92 200.11 290.02C200.81 290.81 199.34 291.4 198.08 291.52H198.09ZM207.27 290.71C206.74 290.82 206.18 290.89 205.63 290.97L205.09 291.24L205.49 290.89L207.57 290.41C207.46 290.52 207.4 290.68 207.26 290.71H207.27ZM194 280.56C193.375 281.012 192.705 281.398 192 281.71C191.34 281.94 190.83 281.55 191.4 281.22C192.2 280.881 193.035 280.629 193.89 280.47L194.06 278.28C192.63 278.12 189.26 280.33 190.16 277.34C190.8 275.23 192.84 273.52 196.23 272.48C195.74 274.4 193.67 276.15 194.23 278.18C197.23 278.46 199.82 280.09 203.28 278.39C205.56 277.26 206.21 279.18 207.6 279.73C203.36 282.21 198.51 280.09 194 280.56ZM196.59 270.81C197.82 270.68 197.87 271.81 198.23 272.44L200.11 273.04C199.885 273.098 199.652 273.122 199.42 273.11C198.98 272.92 198.61 272.67 198.21 272.45H196.21C196.31 271.86 194.71 271 196.62 270.81H196.59ZM211.74 271.94L211.85 271.63L212.42 271.83L211.74 271.94ZM215.74 275.42L215.96 279.25L216.3 279.62L215.83 279.32C209.66 278.18 214.54 276.75 215.73 275.42H215.74ZM215.84 291C215.59 290.94 215.27 290.75 215.28 290.62C215.28 290.13 215.82 290.04 216.48 290.41C216.65 290.5 216.59 290.73 216.63 290.9C216.37 290.976 216.1 291.009 215.83 291H215.84ZM218.06 271.88L217.47 271.76L218.07 271.63L218.06 271.88ZM220.78 290.62C223.68 289.54 225.19 290 227.78 289.87C225.14 290.86 223.66 290.35 220.77 290.62H220.78ZM224.7 280.56C224.78 280.03 225.25 279.96 225.86 280.37C226.01 280.48 225.96 280.69 226.01 280.85C225.739 280.917 225.459 280.947 225.18 280.94C225 280.89 224.67 280.68 224.69 280.56H224.7ZM221.76 277L221.28 277.29L221.62 276.92C222.49 275.47 224.38 274.86 226.99 274.86C229.99 274.86 232.91 274.81 235.77 274.76C234.926 274.995 234.098 275.282 233.29 275.62C228 278.25 228 278.2 221.76 277ZM227.59 271.68L228.26 271.6L228.15 271.89L227.59 271.68ZM243.59 289.68C239.83 290.26 236.22 290.61 232.65 290.96C234.47 289.81 235.42 289.22 236.76 289.08C238.1 288.94 239.9 289.23 243.76 289.6L244.24 289.88L243.59 289.68ZM247.45 278.9C245.11 280.73 242.19 279.9 239.56 279.37L239 279.65L239.48 279.32C241.63 277.97 244.9 277.38 245.94 275.32C248.18 276.43 249.14 277.51 247.42 278.91L247.45 278.9ZM241.52 271.84L242.52 271.38L243.14 271.61C242.8 271.784 242.445 271.928 242.08 272.04C242 272.09 241.7 271.93 241.49 271.85L241.52 271.84ZM250.77 288.61C250.247 288.558 249.737 288.419 249.26 288.2C249.39 287.73 249.9 287.55 250.74 287.7C251.32 287.8 251.84 287.94 252.4 288.06C251.877 288.328 251.318 288.517 250.74 288.62L250.77 288.61ZM256.29 274.72C256.07 275.17 255.84 275.6 255.6 276.04L256.12 274.68L256.54 274.29L256.29 274.72ZM257.21 267.11C257.11 267.25 256.84 267.34 256.65 267.45C256.55 267.32 256.36 267.19 256.37 267.04C256.394 266.941 256.439 266.848 256.501 266.767C256.563 266.687 256.641 266.619 256.73 266.57C257.36 266.36 257.56 266.57 257.18 267.12L257.21 267.11ZM261 285.93L261.69 285.57V285.86L261 285.93ZM264.72 273.42C264.3 273.83 263.46 274.16 263.23 274.52C262.62 274.79 261.91 275.26 261.53 275.2C260.94 275.13 260.63 273.84 260.53 272.51C260.403 271.488 260.559 270.45 260.98 269.51C261.661 269.017 262.422 268.645 263.23 268.41C263.443 268.396 263.657 268.396 263.87 268.41C264.011 268.408 264.15 268.435 264.28 268.49C264.46 268.58 264.45 268.79 264.37 269.02C264.118 269.536 263.82 270.028 263.48 270.49C262.93 271.49 262.82 272.21 263.88 272.49C264.49 272.61 264.78 272.72 264.88 272.89C264.98 273.06 264.91 273.22 264.71 273.42H264.72ZM260.5 266.42C260.55 266.124 260.645 265.838 260.78 265.57C260.92 265.42 261.19 265.57 261.53 265.43C261.36 265.81 261.36 266.09 261.2 266.43C261.04 266.77 260.71 266.76 260.49 266.41L260.5 266.42ZM266.32 208.87C267.44 214.28 267.04 219.21 266.99 224.1C266.94 229.32 265.99 234.94 266.46 239.65C266.92 244.19 265.68 249.3 267.12 253.51C267.74 254.18 267.12 255.02 266.03 255.04C266.072 254.927 266.091 254.806 266.085 254.685C266.078 254.564 266.048 254.446 265.995 254.337C265.941 254.229 265.866 254.132 265.774 254.054C265.682 253.975 265.575 253.916 265.46 253.88C265.24 253.823 265.01 253.823 264.79 253.88C264.79 254.23 265.41 254.62 265.96 255.03C265.859 255.2 265.73 255.352 265.58 255.48C265.06 255.34 264.94 255.38 265.25 255.62C265.31 255.62 265.52 255.62 265.66 255.62C265.84 255.852 265.938 256.137 265.938 256.43C265.938 256.723 265.84 257.008 265.66 257.24C265.378 257.188 265.086 257.23 264.83 257.36C264.5 257.48 264.2 257.61 263.88 257.76C263.273 258.067 262.691 258.421 262.14 258.82C261.063 259.63 260.059 260.534 259.14 261.52L258.49 262.21L258.29 262.52C258.156 262.737 257.998 262.938 257.82 263.12L257.59 263.33L257.54 263.38L257.35 263.5L256.96 263.74C256.441 264.011 255.907 264.251 255.36 264.46C253.954 264.964 252.754 265.921 251.95 267.18C251.53 267.81 251.11 268.43 250.71 269.18C250.31 269.93 249.87 270.61 249.38 271.33C248.732 270.214 247.827 269.268 246.74 268.572C245.653 267.876 244.415 267.451 243.13 267.33C240.291 267.169 237.442 267.36 234.65 267.9C232.402 268.222 230.139 268.428 227.87 268.52L224.36 268.64H220.91C216.47 268.64 212.03 268.56 207.58 268.64C203.44 268.73 199.35 266.16 195.47 267.86C191.74 269.5 187.19 265.71 184.41 269C178.33 266.56 174.54 270.4 169.41 270.47C169.74 272.9 174.87 272.58 174.61 274.72C176.22 275.49 175.81 276.28 174.61 277.08L172.54 278.08L171.91 279.17C170.69 278.56 172.24 278.4 172.45 278.02L174.45 276.95L174.22 274.82C172.05 273.28 167.13 273.4 166.9 270.65C166.803 270.279 166.571 269.957 166.249 269.748C165.927 269.539 165.539 269.458 165.16 269.52C161.53 270.42 157.72 270.52 153.93 270.93C150.14 271.34 155.93 273.88 152.01 274.5C143.54 266.06 140.17 267.79 128.34 270.96C127.795 271.072 127.244 271.152 126.69 271.2C125.37 267.03 120.63 270.55 117.83 269.7L117.24 269.47L117.81 269.71C115.81 270.93 113.87 269.98 111.95 269.44C111.69 270.69 111.49 271.95 109.76 272.83C109.576 273.141 109.376 273.441 109.16 273.73C109.09 273.81 108.81 273.81 108.62 273.85C108.27 273.25 109.12 273.07 109.68 272.79L108.61 270.64L111.95 269.44C109.51 267.73 108.53 268.98 107.47 270.11C104.664 270.078 101.881 269.609 99.2199 268.72C95.88 267.49 86.95 268.29 83.8999 269.6C81.52 270.6 78.8999 271.42 76.1299 272.43C75.5399 270.72 79.2399 269.29 76.3999 268.09C75.1465 267.556 73.7937 267.295 72.4316 267.325C71.0695 267.354 69.7293 267.673 68.4999 268.26C68.0399 268.51 67.4999 268.72 67.0599 268.95L66.0599 270.5C65.8867 270.839 65.5865 271.095 65.2249 271.213C64.8633 271.331 64.4696 271.301 64.1299 271.13C63.2299 270.7 63.8799 270.13 64.5799 269.74C65.2799 269.35 66.0999 269.12 66.8699 268.82C66.2117 268.049 65.3688 267.457 64.4199 267.1C63.5216 266.79 62.58 266.625 61.6299 266.61C59.7299 266.61 57.7799 266.93 55.9999 266.94C53.1558 266.904 50.3247 266.548 47.5599 265.88C44.9299 265.3 42.5599 264.67 40.2299 264.33C40.0014 264.254 39.7901 264.134 39.6082 263.976C39.4263 263.818 39.2774 263.626 39.1699 263.41C38.9275 262.907 38.7978 262.358 38.7899 261.8C38.9779 261.779 39.1626 261.736 39.3399 261.67C39.3588 261.551 39.3414 261.429 39.2899 261.32C39.1072 261.3 38.9227 261.3 38.7399 261.32C37.9725 261.207 37.2393 260.927 36.5928 260.498C35.9463 260.069 35.4024 259.503 34.9999 258.84C34.2011 257.35 33.5673 255.777 33.1099 254.15C33.4199 253.71 33.3999 253.42 33.0399 253.42C32.9399 253.42 32.8699 253.73 32.7799 253.89C32.3261 253.405 31.9787 252.831 31.7599 252.204C31.5412 251.577 31.4561 250.912 31.5099 250.25C31.5776 248.755 31.5274 247.257 31.3599 245.77C30.2042 238.459 29.4365 231.092 29.0599 223.7C28.9099 221.39 30.0599 223.09 30.6299 223.25C30.7545 223.463 30.8984 223.664 31.0599 223.85C31.1691 223.733 31.2511 223.593 31.2999 223.44C31.1941 223.2 31.0738 222.966 30.9399 222.74C28.6899 218.08 30.7299 212.46 29.7499 207.49L29.5399 206.85L29.8199 207.41C31.3199 205.79 30.4999 203.8 30.1899 201.89C30.4094 201.515 30.5342 201.093 30.5533 200.659C30.5725 200.225 30.4855 199.793 30.2999 199.4C31.4099 189.4 30.4899 179.19 31.7699 168.93C32.5207 163.066 32.6413 157.139 32.1299 151.25C31.8137 149.085 31.7399 146.891 31.9099 144.71C33.5999 132.46 32.7899 120.4 32.5799 108.31C32.5799 106.69 32.3799 105.08 32.1999 103.51C32.0899 102.51 31.7499 101.51 31.1099 101.72C30.4897 102.027 30.0155 102.566 29.7899 103.22C28.9826 104.954 28.823 106.919 29.3399 108.76C30.8399 112.99 30.2599 117.46 29.8699 122.19C28.7999 122.12 27.8099 116.19 26.7199 122.19C25.8099 127.19 25.5199 123.07 24.9999 121.93C26.4999 119.78 26.9999 115.8 25.8999 115.62C22.8499 115.15 24.8199 111.47 24.0499 109.84L23.8899 109.17L24.1499 109.7C26.9699 109.46 27.6099 106.45 27.5899 102.35C27.5482 90.7726 28.1859 79.2027 29.4999 67.7C30.1599 61.99 30.9899 56.3 32.0899 50.7C32.6799 48 33.2899 45.25 33.9999 42.6L34.2799 41.6C34.3699 41.26 34.4499 40.94 34.5299 40.73C34.6899 40.25 34.8399 39.73 35.0099 39.32C35.3399 38.38 35.7099 37.48 36.1099 36.62C36.4731 35.8306 36.8873 35.0656 37.3499 34.33C37.5788 33.9762 37.8363 33.6417 38.1199 33.33C38.4258 33.0424 38.7609 32.7877 39.1199 32.57C40.5555 31.7145 42.0341 30.9335 43.5499 30.23C43.6395 29.6666 43.8148 29.1203 44.0699 28.61C44.2499 28.29 44.8699 27.8 45.0699 27.86C46.3299 28.24 45.4799 28.73 45.0699 29.11C44.6599 29.49 44.0699 29.91 43.6699 30.32C44.6596 30.8432 45.7112 31.2397 46.7999 31.5C47.4592 31.6271 48.1286 31.694 48.7999 31.7C49.5499 31.7 50.2999 31.7 51.0599 31.7C54.0599 31.63 57.2199 31.29 60.1999 31.48C64.0899 31.71 68.0299 31.82 71.9599 31.85C76.8399 31.85 74.9599 27.57 79.8199 27.52L80.41 27.3L79.9799 27.61C79.2199 28.46 77.8599 29.41 78.9799 30.28C80.9799 31.95 84.2299 32.42 87.6399 32.34C111.19 31.83 134.35 34.34 157.79 34.34C167.49 34.34 177.02 36.51 186.84 34.83C193.984 36.0078 201.195 36.7392 208.43 37.02C212.063 37.1867 215.7 37.3067 219.34 37.38C221.06 37.38 223.27 37.46 225.23 37.38C227.19 37.3 229.23 37.32 231.11 37.26C235.087 37.1608 239.066 37.4084 243 38C246.54 38.49 249.69 39.14 253 39.48C254.273 39.5641 255.537 39.7514 256.78 40.04C256.95 40.1 256.91 40.11 256.95 40.15C256.979 40.1916 256.996 40.2398 257 40.29C257.017 40.4586 256.986 40.6286 256.91 40.78C256.91 40.78 256.91 40.85 256.84 40.86H256.78V40.95C256.86 41.08 256.96 41.22 257.05 41.35L257.41 41.8C257.55 41.96 257.69 42.11 257.84 42.26C258.43 42.89 259.13 43.54 259.84 44.16L260.84 45.04L261.08 45.23C261.15 45.3 261.08 45.23 261.15 45.23H261.22C261.269 45.1985 261.323 45.1748 261.38 45.16C261.447 45.1329 261.518 45.116 261.59 45.11C261.65 45.11 261.91 45.01 262.14 44.96H262.21C262.159 45.0283 262.115 45.1021 262.08 45.18C261.993 45.4149 261.923 45.6555 261.87 45.9C261.749 46.429 261.675 46.9679 261.65 47.51C261.65 48.06 261.6 48.78 261.65 49.39C261.7 50 261.7 50.79 261.78 51.48C262 54.4 262.44 57.71 262.53 61.11C262.454 64.484 262.12 67.8472 261.53 71.17C260.916 75.0017 261.042 78.9156 261.9 82.7L261.7 83.33L261.91 82.73C262.74 84.5359 262.934 86.5698 262.46 88.5C260.81 97.5 264.46 106.56 262.54 114.6L262.81 116.88L262.92 118.01L263.02 119.24L263.38 124.15C263.58 127.43 263.72 130.73 263.82 134.03C264.02 140.63 264.01 147.3 264.02 154.16C264.03 161.02 264.11 168.16 264.55 175.24C264.76 178.8 265.08 182.35 265.46 185.88L266.12 191.12L266.78 195.84C267.5 201.07 267.64 203.74 268.47 204.98C269.3 206.22 270.8 206.06 273.99 205.66C274.56 205.58 275.13 205.44 275.7 205.33L276.26 203.67C276.93 204.83 276.05 204.96 275.84 205.52C275.3 209.26 272.68 206.82 271.69 209.1C271.649 209.459 271.649 209.821 271.69 210.18C272.11 211.91 274.25 211.32 273.79 213.79C273.5 215.4 272.45 217.14 271.24 217.11C269.64 217.06 269.94 214.96 269.84 213.04C269.62 210.41 268.6 208.8 266.31 208.86L266.32 208.87ZM276 195.71L276.26 195.81L276.1 196.34L276 195.71ZM268.65 256.21C268.668 255.805 268.708 255.401 268.77 255C268.86 254.57 268.99 254.17 269.09 253.67C269.37 254.43 269.71 255.14 270.09 255.98C270.457 256.776 270.668 257.635 270.71 258.51C270.819 259.061 270.886 259.619 270.91 260.18L270.8 260.61L270.74 260.21C270.743 259.645 270.71 259.081 270.64 258.52C268.91 257.7 268.58 256.93 268.65 256.21ZM271.15 267.21C270.68 267.81 270.21 267.96 269.95 267.59C269.913 267.484 269.9 267.372 269.914 267.261C269.928 267.149 269.968 267.043 270.03 266.95C270.49 266.36 270.93 266.24 271.24 266.55C271.22 266.73 271.28 267 271.15 267.17V267.21ZM270.62 229C270.52 228.46 271.1 226.81 271.41 226.75C272.89 226.49 274.06 227.46 274.67 229.62C274.573 229.992 274.432 230.351 274.25 230.69C272.93 230.64 271.23 232.09 270.62 229ZM273.19 238C273.319 237.549 273.511 237.118 273.76 236.72C273.861 237.304 273.898 237.898 273.87 238.49C273.737 238.969 273.546 239.429 273.3 239.86C273.202 239.245 273.165 238.622 273.19 238ZM275.85 253C275.85 253.64 275.76 254.42 275.75 254.94C275.74 255.46 275.75 256.08 275.75 256.67C275.75 257.26 275.84 257.88 275.92 258.53C275.92 259.156 275.849 259.78 275.71 260.39C274.58 258.54 273.71 257.74 273.42 256.88C273.284 256.433 273.284 255.957 273.42 255.51C273.504 255.199 273.605 254.891 273.72 254.59C273.84 254.29 274.02 253.59 274.22 253.01C274.66 251.562 274.705 250.022 274.35 248.55C273.85 245.8 275.35 245.72 276.35 245.08C276.39 247.74 276.06 250.36 275.85 253.05V253ZM275.76 236.45L276.08 236.5L275.87 237.09L275.76 236.45ZM279.5 273.89L279.3 273.66L279.87 273.29L279.5 273.89ZM279.79 225.4C275.46 225.91 278.63 230.4 278.08 232.99L278.33 233.54L278.04 233.04C275.48 230.72 276.77 224.49 274.2 221.99C273.37 221.18 274.15 219.73 274.76 218.99C276.23 217.12 275.29 213.99 276.37 211.34C277.71 216.14 278.84 220.7 279.89 225.34L280.05 225.96L279.79 225.4ZM280.14 32.84C279.601 32.0888 279.013 31.3739 278.38 30.7C277.75 29.99 277.16 29.39 276.58 28.81C276.76 28.75 276.99 28.56 277.12 28.66C277.52 28.98 277.88 29.27 278.32 29.66C278.76 30.05 279.18 30.42 279.59 30.83C280.426 31.6382 281.188 32.5182 281.87 33.46C282.04 33.64 281.98 34.11 282.1 35.61C281.509 34.66 280.854 33.7512 280.14 32.89V32.84ZM282.41 28.33C281.549 27.8098 280.919 26.9797 280.65 26.01C280.562 25.2761 280.268 24.5824 279.8 24.01C279.404 23.916 279.041 23.7168 278.748 23.4334C278.456 23.15 278.246 22.793 278.14 22.4C277.03 21.4 275.9 20.4 274.65 19.4L273.96 19.17L274.57 19.23C275.416 19.3886 276.205 19.7695 276.855 20.3336C277.505 20.8977 277.994 21.6247 278.27 22.44C278.741 22.9656 279.245 23.46 279.78 23.92C280.62 24.2248 281.379 24.7173 282 25.36L282.21 25.6L282.45 25.9C282.602 26.1102 282.739 26.3308 282.86 26.56C283.103 27.0056 283.269 27.4891 283.35 27.99C283.42 28.4 282.76 28.64 282.41 28.38V28.33ZM283.86 40.59C284 40.39 284.64 40.81 284.86 41.24C285.07 41.7071 285.192 42.2088 285.22 42.72C285.237 43.1831 285.13 43.6424 284.91 44.05C284.59 43.81 284.12 43.72 283.96 43.3C283.74 42.8942 283.616 42.4431 283.599 41.9817C283.581 41.5203 283.671 41.0612 283.86 40.64V40.59ZM283.99 67.59C284.031 67.3759 284.121 67.1742 284.252 67.0007C284.384 66.8272 284.555 66.6866 284.75 66.59C284.98 66.52 285.25 66.97 285.51 67.18L284.66 68.18C284.2 68.56 283.87 68.3 284 67.59H283.99ZM285.27 158.87L284.32 157.59C284.46 157.59 284.66 157.43 284.73 157.54C284.958 157.925 285.165 158.322 285.35 158.73C286.35 160.47 286.3 162.73 286.46 164.93C284.64 163.69 285.86 160.75 285.27 158.87ZM286 153L286.17 152.43L286.28 153.03L286 153ZM286.44 144.84C286.25 144.31 286.06 143.84 285.91 143.36C285.7 142.64 285.85 142.05 286.24 142.19C286.47 142.27 286.7 142.97 286.74 143.45C286.714 143.932 286.616 144.407 286.45 144.86L286.44 144.84ZM286.99 127.26C286.11 128.67 285.19 127.95 285.49 125.56C285.76 124.691 285.915 123.79 285.95 122.88C285.85 121.52 284.41 120.63 285.55 118.6C286.117 119.602 286.608 120.645 287.02 121.72C287.62 123.54 287.87 125.86 287 127.28L286.99 127.26ZM289.12 43.8C288.77 43 288.83 42.05 289.23 42.14C289.9 42.3 290.04 43.66 290.23 44.73C290.23 45.44 290.23 46.14 290.23 46.84C289.29 46.58 289.58 44.84 289.13 43.82L289.12 43.8Z" fill="#7E2152"/>
<path d="M294.99 159.14L295.17 159.84L295.4 159.18L294.99 159.14Z" fill="#7E2152"/>
<path d="M294.75 170.94L295.14 171.06L295 170.35L294.75 170.94Z" fill="#7E2152"/>
<path d="M292.33 251.24L292.32 251.25L292.33 251.24Z" fill="#7E2152"/>
<path d="M180.29 279.33C180.93 279.33 181.57 279.33 182.21 279.33L180.38 278.24C180.3 278.597 180.27 278.964 180.29 279.33Z" fill="#7E2152"/>
</g>
<defs>
<clipPath id="clip0_130_435">
<rect width="300" height="300" fill="white"/>
</clipPath>
</defs>
</svg>
